<?xml version="1.0" encoding="utf-8"?>
<!-- Generator: Adobe Illustrator 16.0.0, SVG Export Plug-In . SVG Version: 6.00 Build 0)  -->
<!DOCTYPE svg PUBLIC "-//W3C//DTD SVG 1.1//EN" "http://www.w3.org/Graphics/SVG/1.1/DTD/svg11.dtd">
<svg version="1.1" id="Layer_1" xmlns="http://www.w3.org/2000/svg" xmlns:xlink="http://www.w3.org/1999/xlink" x="0px" y="0px"
	 width="600px" height="600px" viewBox="0 0 600 600" enable-background="new 0 0 600 600" xml:space="preserve">
<g>
	<defs>
		<rect id="SVGID_1_" x="16.682" y="120.947" width="564.9" height="329.526"/>
	</defs>
	<clipPath id="SVGID_2_">
		<use xlink:href="#SVGID_1_"  overflow="visible"/>
	</clipPath>
	<path clip-path="url(#SVGID_2_)" fill="#FFFFFF" d="M511.923,269.145c-2.757,0.401-7.31,0.639-10.021,0
		c-0.486-2.134-1.378-3.685-1.779-5.887c3.552,1.693,8.454,1.588,11.915,0C511.863,265.242,511.765,266.822,511.923,269.145
		 M530.099,267.682c-2.342,1.597-6.801,3.463-9.881,4.426c-14.885,4.624-34.363,0.538-45.299-5.787
		c-1.396-10.207-3.619-21.22-9.541-27.899c-14.63,3.089-30.066,2.207-42.23-2.719c-4.454-1.803-7.886-5.166-12.61-7.821
		c-4.72-2.653-8.458-5.05-11.915-8.165c-3.542-3.179-6.819-6.229-10.222-9.524c-6.473-6.274-15.915-14.157-26.23-12.593
		c-7.424,1.128-14.893,8.117-13.618,17.358c0.958,6.934,10.636,16.452,17.708,11.563c3.562-2.461,5.313-11.549,0.341-12.588
		c-2.983,4.205-4.64,2.275-5.792,1.367c-0.986-1.294-0.917-4.195,0.346-5.106c13.484-6.923,17.344,18.958,3.74,21.765
		c-12.589,1.822-23.396-12.746-20.436-24.151c1.908-7.345,10.539-15.369,21.123-14.282c3.08,0.312,6.057,0.985,9.198,2.377
		c15.616,6.909,26.775,24.573,44.277,34.017c13.249,7.156,27.937,8.018,47.34,4.765c0.396-0.165,0.308-0.07,0.684,0.341
		c6.651,6.219,10.542,16.079,10.908,27.556c-0.108,1.598-2.034,1.375-2.391,2.72c1.396,0.036,1.362-1.36,3.063-1.019
		c10.099,4.897,27.416,9.227,40.536,4.763c3.09-1.052,9.711-4.808,9.188-8.165c-0.938-6.052-17.962-6.587-20.434-2.045
		c0.881,1.164,3.643,0.451,4.777,1.363c-2.202,4.966-11.533,2.575-14.649,0c0.843-4.299,6.854-6.422,11.585-7.479
		c6.829-1.544,15.601-0.393,20.434,2.377c1.763,1.01,5.417,3.61,5.447,5.784C535.576,262.892,531.791,266.525,530.099,267.682
		 M505.229,347.627c-14.54,5.527-30.418-5.221-32.018-18.367c-0.979-8.102,4.745-15.119,13.629-13.951
		c7.776,1.029,14.971,9.484,13.624,17.012c-0.996,5.57-10.881,6.512-11.239-1.359c1.814-1.197,2.27,1.465,4.764,0.681
		c3.419-6.397-5.85-12.612-12.601-9.524c-6.566,3.002-2.268,14.264,1.704,18.027c8.136,7.705,23.74,6.096,27.583-3.402
		c2.284-9.855-3.253-16.331-7.487-21.771c5.252,2.635,7.804,3.964,9.879,7.821C517.365,330.835,515.255,343.82,505.229,347.627
		 M475.936,362.936c-6.129,6.018-12.389,12.068-18.22,18.381c-6.317-2.645-9.344-6.525-12.069-12.744
		c0.991-2.449,4.689-5.484,6.554-6.887c10.953-8.295,15.482-18.658,19.616-33.143c0.083,2.439,0,3.799,0.564,5.031
		c3.911,10.615,12.667,18.059,26.374,17.768C490.188,355.68,482.344,356.645,475.936,362.936 M381.927,344.908
		c-6.876-1.141-15.444-8.234-17.032-14.293c-2.566-8.443,0.964-17.742,6.471-20.748c4.537-2.184,8.949-2.025,13.624,0.344
		c7.586,3.83,5.764,16.717-2.031,18.371c-3.307,0.692-7.759-1.178-8.178-4.432c-0.374-2.814,1.419-5.126,4.765-3.739
		c1.242,1.345-0.933,1.337-0.682,2.728c1.562,2.148,5.274,1.214,6.819-0.346c3.862-6.988-7.639-13.016-13.286-8.5
		c-6.87,5.473-3.091,18.27,2.384,23.133c4.638,3.406,9.208,4.582,14.646,4.424c8.989-0.264,14.732-6.732,23.493-7.484
		C403.624,338.312,394.764,347.039,381.927,344.908 M332.338,320.342c-2.418-0.863-3.531-5.384-2.862-10.475
		c1.479-4.686,4.624-7.438,8.849-7.488c2.418-0.023,5.852,2.199,8.855,3.408c6.288,2.516,13.658,4.715,21.373,4.383
		c-3.031,3.355-5.72,6.699-5.839,12.231c-0.04,1.962-0.386,4.777,1.353,10.507C355.102,325.85,346.932,319.617,332.338,320.342
		 M328.113,312.932c-11.9-4.673-23.726,1.012-29.976,7.143c-5.611-6.455-18.349-12.039-28.95-6.465v-3.059
		c8.938-3.803,19.02-1.907,25.883,2.381c0.873,0.541,2.914,2.714,3.067,2.715c1.208,0.069,6.126-4.67,8.513-5.436
		c4.521-1.449,8.795-1.938,12.945-1.705C322.766,308.688,328.848,308.757,328.113,312.932 M265.612,320.286
		c-2.818,0.282-5.042,0-6.646,0.125c-10.795,0.876-18.729,6.993-26.219,10.882c3.289-8.283,1.746-16.454-2.727-21.764
		c4.338-0.213,7.691-0.133,11.578-1.023c6.755-1.549,11.985-6.8,18.393-5.784c3.128,0.501,5.987,1.891,7.151,4.765
		C268.43,311.48,267.725,319.311,265.612,320.286 M196.84,342.984c2.427-0.211,4.502-0.076,6.606-0.111
		c13.998-0.291,26.133-8.598,24.87-23.137c-0.391-4.477-4.399-8.232-9.196-7.825c-3.496,0.298-9.988,5.446-7.503,10.206
		c0.743,1.408,2.273,1.84,3.412,1.695c3.145-0.396,1.172-3.15,3.066-4.765c0.5-0.183,1.089-0.243,1.446-0.087
		c2.071,0.925,2.149,3.875,0.936,6.287c-0.936,1.888-2.754,3.402-4.427,3.666c-4.269,0.678-7.171-1.922-8.547-4.879
		c-4.546-14.783,15.698-21.354,23.199-11.441C241.851,330.904,214.926,353.465,196.84,342.984 M145.198,358.172
		c1.863,2.578,7.543,7.549,7.499,10.215c-0.049,2.879-8.987,8.379-11.241,9.176c-1.472,0.525-5.086,1.264-6.131,1.021
		c-1.976-0.453-5.393-5.939-7.156-8.162c-2.437-3.074-4.169-6.008-6.809-8.508c-7.3-6.914-15.979-10.324-24.99-14.143
		c7.003,0.504,13.98-1.26,19.364-5.592c4.175-3.375,9.211-11.219,8.67-16.887c0.55-0.094,0.269-0.133,0.707-0.117
		C128.852,339,137.449,347.42,145.198,358.172 M111.484,336.059c-2.579,4.977-9.969,5.314-12.265,0
		c3.708,0.574,8.057-0.668,9.206-3.738C110.227,332.785,110.611,334.668,111.484,336.059 M82.535,331.642
		c0.143-9.329,7.79-18.065,14.985-20.075c-3.461,5.709-14.456,16.773-8.859,26.197c6.104,10.285,25.706,2.678,28.609-6.803
		c4.491-14.625-17.393-11.064-16.005-0.682c1.664,1.809,4.892-2.648,6.471,0c0.783,4.605-8.309,6.77-11.577,3.398
		c-0.223-5.918,3.269-12.104,7.152-15.303c6.012-4.967,18.591-5.74,19.755,4.418c1.347,11.807-9.772,22.031-21.119,23.479
		C90.777,347.695,82.376,341.676,82.535,331.642 M203.773,329.89c0.392,0.093,0.804,0.173,1.214,0.231
		C204.596,330.077,204.195,329.993,203.773,329.89 M225.6,316.993c1.374,0.663,1.667,3.63,1.454,5.097
		c-1.248,0.791-2.823,1.385-4.535,1.723c-0.239-2.883-0.512-3.645-1.701-5.438C222.686,318.082,224.206,317.756,225.6,316.993
		 M375.802,319.391c-1.47,0.865-2.078,2.471-2.05,4.76c-1.484-0.102-2.535-0.844-3.99-0.972c-0.357-2.734,0.563-4.874,1.55-5.423
		C373.484,317.746,374.02,319.013,375.802,319.391 M487.86,332.32c1.456,2.645,3.823,5.752,7.146,5.443
		c-3.566,3.59-8.226,6.361-11.915,0.682C484.27,336,486.276,334.369,487.86,332.32 M360.126,215.3
		c-3.731,0.639-8.109,0.529-10.025-0.268c-0.534-2.169-0.573-2.868,0-4.249c1.782-1.149,8.363-0.689,9.989-0.773
		C359.109,211.365,358.296,213.943,360.126,215.3 M67.544,300.007c0.772-6.524,1.668-12.232,1.019-20.079
		c17.729,13.478,49.75,3.236,65.741-6.465c0.575-9.859,2.838-18.031,7.152-24.152c40.727,6.914,64.219-16.042,84.137-34.353
		c-0.382,1.531-0.822,2.129-1.06,4.314c-1.401,12.643,10.663,16.901,21.493,13.371c12.354-3.011,25.266-6.051,41.896-6.805
		c17.492-0.787,32.338,0.823,47.684,3.739c14.486,2.764,41.108,12.549,39.436-12.361c1.381,1.011,1.985,1.773,2.753,2.456
		c2.521,2.214,5.422,4.72,8.224,7.191c15.389,15.698,41.491,29.496,70.501,24.152c4.328,5.873,6.478,13.945,6.814,23.813
		c14.955,10.476,46.589,20.93,66.077,7.822c-1.145,4.582,1.178,12.342,0.975,15.972c-2.024,3.44-5.81,4.916-9.508,6.267
		c-10.21,2.938-19.947-2.722-27.915-5.228c-2.635,3.144-4.081,7.492-6.463,10.89c0.366,1.748,2.001,2.523,1.584,3.963
		c-18.614-4.622-18.09,20.375-25.093,30.395c-3.281-3.873-4.926-6.994-10.682-12.302c-0.733-0.579-7.323-5.446-10.616-6.863
		c-3.8-2.017-11.401-3.788-12.421-3.971c-9.889-1.739-20.266,0.66-27.925,4.086c-5.27,2.347-11.082,5.824-15.329,3.056
		c7.851-4.744,6.493-19.066-3.979-21.344c-4.032-0.867-8.603-0.803-12.376,1.619c-7.008,0.193-14.758-1.977-20.434-4.086
		c-6.686-2.486-9.908-5.562-15.321-2.725c-9.507-6.161-29.05-5.636-36.453,2.047c-7.324-6.533-25.116-9.538-34.057-2.385
		c-7.116-2.41-13.187,2.597-19.758,4.76c-3.681,1.221-9.081,1.57-13.96,1.368c-3.799-0.164-7.667-2.066-11.583-1.698
		c-9.761,0.891-18.942,14.297-7.875,22.539c-0.188,0.953-3.174,1.483-4.046,1.18c-6.071-1.528-12.124-6.07-18.734-7.734
		c-10.001-2.516-23.008-0.954-31.674,3.065c-8.573,3.958-15.05,10.331-20.779,15.985c-9.162-7.32-6.745-34.486-27.252-26.534
		c-1.099-0.851,2.026-3.134,2.729-4.421c-2.298-3.604-4.274-7.532-6.473-11.232C94.835,303.583,76.636,306.271,67.544,300.007
		 M238.87,215.636c0.817-1.996,1.228-4.114-1.021-5.1c3.209-0.708,8.131-0.881,10.974-0.094c0.6,1.896,0.476,4.269-0.411,5.194
		C245.02,215.314,241.369,216.157,238.87,215.636 M85.935,262.58c1.968,1.657,7.583,1.469,10.901,0.338
		c-0.06,2.324-1.191,2.667-1.124,5.117c-3.689,0.584-7.839,1.155-10.501-0.251C85.536,266.069,85.976,264.659,85.935,262.58
		 M64.143,260.88c-0.241-2.809,4.911-6.74,9.186-7.829c9.785-2.471,20.363,1.271,24.191,5.784
		c-0.644,4.374-9.999,5.219-11.584,1.025c0.472-2.55,3.77-0.515,4.429-0.683c-2.978-6.894-28.346-2.49-17.035,6.124
		c10.975,8.356,34.477,3.043,45.991-2.72c2.09-11.055,7.021-21.023,13.281-28.921c32.664,8.319,57.752-8.692,74.595-25.51
		c8.716-8.705,21.037-19.764,37.464-11.567c4.477,2.238,9.711,7.898,10.226,14.293c0.667,8.392-6.467,18.945-14.99,20.748
		c-5.799,1.232-11.786-1.713-13.624-7.141c-1.901-5.617,1.352-16.169,9.194-14.288c1.553,0.367,3.443,2.333,2.384,4.765
		c-2.139,2.625-3.798,2.079-4.766-0.342c-6.214,3.957-1.552,14.129,7.485,12.247c5.813-1.213,11.726-10.988,8.864-19.056
		c-2.229-6.284-10.449-12.031-19.413-10.207c-11.499,2.343-21.026,14.733-30.317,21.78c-17.005,12.886-36.83,23.944-64.715,18.367
		c-7.899,5.578-9.695,17.595-11.923,27.892c-6.267,2.505-13.432,5.18-22.48,6.807c-8.657,1.558-19.569,2.033-25.887-1.359
		C72.699,270.011,64.418,264.089,64.143,260.88 M351.953,195.56c0.405,0.53-2.268,1.649-3.378,2.763
		c-2.742,2.734-6.108,7.488-6.226,12.98c-0.207,9.429,6.275,15.966,12.078,20.289c-17.024-3.833-35.941-8.151-54.368-7.859
		c-20.83,0.331-34.223,2.016-52.347,6.582c6.445-4.953,10.441-11.841,8.421-21.567c-1.467-7.071-6.587-11.152-11.813-14.886
		C277.601,200.419,316.777,201.834,351.953,195.56 M534.861,268.021c1.001-2.897,3.036-6.142,2.729-8.503
		c-0.852-6.567-14.181-9.493-23.166-9.187c-4.223,0.143-10.455,1.45-13.96,3.407c-1.814,1-4.997,3.818-5.116,5.438
		c-0.191,2.848,3.338,3.713,2.732,7.824c-6.862-0.178-12.715-1.365-16.692-4.42c-2.006-13.308-5.986-24.648-13.623-32.32
		c-20.33,5.467-38.302,2.595-52.117-6.803c-6.472-4.393-11.771-10.178-17.709-15.309c-6.065-5.234-12.275-11.171-18.394-14.624
		c-2.405-1.367-5.871-2.875-8.18-3.402c-9.686-2.229-18.695,1.252-26.216,2.719c-25.009,4.877-55.44,5.085-81.41,1.021
		c-10.458-1.635-20.729-4.294-30.993-4.765c-12.843-0.584-22.322,10.042-29.3,17.01c-16.452,16.437-39.134,33.272-72.55,23.127
		c-6.735,8.928-11.25,20.071-15.664,31.303c-4.967,1.515-10.335,4.413-15.673,4.423c5.784-9.059-6.4-13.858-15.328-14.63
		c-10.047-0.862-23.131,2.08-23.839,9.187c-0.303,3.031,2.069,7.354,3.067,11.568c2.85,12.097,2.33,26.559-2.045,36.4
		c3.385,7.357,11.341,11.695,22.14,10.542c-2.016,3.47-4.859,8.681-4.43,14.97c0.957,13.965,12.322,15.277,23.505,20.41
		c10.385,4.768,19.512,11.656,25.202,19.395c1.797,2.443,3.481,7.73,6.134,8.504c2.018,0.6,6.311-0.617,8.173-1.35
		c3.109-1.252,13.901-7.896,13.628-11.57c-0.119-1.496-3.804-4.1-5.798-6.473c-1.961-2.336-5.107-5.135-5.102-7.141
		c0-2.451,5.547-7.752,6.468-8.502c3.536-2.895,12.692-8.303,18.393-9.186c12.127-1.879,18.293,4.371,25.889,8.164
		c9.633,4.803,23.038,3.314,30.313-2.723c4.2-3.482,6.626-8.422,10.899-11.234c2.085-1.359,4.592-2.85,7.051-4.094
		c2.428-1.223,4.72-2.229,7.256-3.049c3.952-1.27,8.701-2.037,15.038-2.457c2.692-0.184,1.714-4.24,4.038-6.047
		c2.616-2.037,6.983-2.467,9.874-2.378c7.429,0.218,13.337,5.508,18.376,9.589c5.702-5.924,18.007-13.328,29.304-7.549
		c0.224,2.808,1.586,5.156,3.189,6.062c3.102,0.511,6.512,0.416,10.436,1.084c10.483,1.788,19.858,9.716,26.572,15.654
		c5.77,5.086,11.722,10.838,23.156,8.162c11.729-2.754,19.324-12.09,34.75-11.568c10.379,0.354,14.321,5.932,19.418,11.568
		c3.235,3.586,6.748,6.875,9.191,10.547c-3.438,4.75-10.562,7.613-10.899,10.549c-0.169,2.604,3.683,7.818,5.456,9.855
		c1.837,2.123,6.482,6.109,9.197,5.789c1.525-0.189,3.916-3.438,5.777-5.449c5.543-5.947,12.219-12.41,18.744-15.984
		c4.368-2.393,9.352-4.24,13.966-6.469c4.913-2.381,10.589-3.988,14.302-6.463c7.154-4.775,10.252-20.753,4.423-27.558
		c6.052-0.575,13.743-4.437,17.377-8.495c1.288-1.451,3.288-4.132,3.401-5.793c0.14-1.826-2.015-6.234-2.38-8.161
		C531.939,288.618,532.157,275.875,534.861,268.021"/>
	<path clip-path="url(#SVGID_2_)" fill="#FFFFFF" d="M323.775,244.305c-1.135,1.079-2.299,2.323-3.576,3.228
		c-1.149,0.813-2.377,1.491-3.496,2.274c0.348,0.743-0.062,0.355,1.051,1.223c1.436,1.109,0.668,6.532,0.58,8.711
		c-0.09,2.174-0.672,1.185-0.759,1.317c-0.524-0.257-6.888-9.746-7.255-10.994c-0.268-0.882,0.535-1.368,0.971-1.744
		c0.169-0.159,1.303-0.788,0.52-1.043c-2.006-0.442-9.975-1.047-12.143-1.047c-0.035,0.138-0.624,0.342-0.174,0.604
		c1.39,0.986,2.862,2.778,2.788,3.749c-0.272,4.1-0.569,18.536-2.09,20.07c-0.341,0.348-1.763,0.601-2.104,0.962
		c-0.219,0.246-0.041,0.44-0.084,0.612c2.051,1.28,5.605,6.424,6.299,8.376c0.287,0,0.698,0.079,0.876-0.347
		c1.239-13.832,1.917-23.657,1.917-23.657s0.168-0.952,0.693-0.252c0.441,0.252,8.404,11.899,9.354,13.524
		c0.778,1.347-1.756,3.05-2.975,3.664c-0.347,0.347,0.346,0.609,0.346,0.52c9-0.173,23.716,2.042,36.697,3.407
		c0.732,0.075,1.838,0.174,2.183,0.174c0.347,0,0.681-0.59,0.519-0.872c-1.391-2.467-4.019-6.112-5.144-7.587
		c-0.619-0.534-0.723,0.08-0.793,0.163c-0.589,0.808-1.048,2.363-1.571,2.534c-0.434,0.353-10.443-0.949-11.006-1.395
		c-0.219-0.712,0.267-5.149,0.871-5.584c0.609-0.437,1.293-0.11,1.485-0.085c2.276,0.169,4.125,0.214,5.499,1.219
		c0.705,0.504,1.103,1.264,1.491,2.091c0.235-0.061,0.512,0.34,0.681-0.274c0.615-1.391,1.029-7.27,1.07-9.146
		c0.01-0.551-0.525-0.699-0.525-0.699s-1.317,1.574-2.365,1.927c-0.606,0.347-5.851,0.872-6.727-0.441
		c-0.432-1.31,0.252-5.343,0.787-5.675c0.439-0.263,7.849,0.689,9.701,1.135c1.406,0.346,0.688,2.74,1.574,2.792
		c0.877,0.054,6.542-5.057,7.25-5.76c0.257-0.253-0.093-0.951-0.525-0.951c-2.184-0.351-24.379-3.149-25.683-2.975
		c-0.519,0.176-0.173,0.698-0.173,0.698s1.918,1.712,1.918,3.054c-0.178,2.268-0.471,13.48-2.094,19.284
		c-0.293,1.02-2.895,3.116-4.543,2.704c-0.801-0.198-2.01-1.919-2.277-3.141c0.088-2.092,1.578-25.998,1.578-25.998
		S324.042,244.453,323.775,244.305"/>
	<path clip-path="url(#SVGID_2_)" fill="#FFFFFF" d="M357.762,251.283c-0.089,0.214-0.346,0.172-0.262,0.693
		c0.088,0.53,1.565,1.322,2.613,4.284c0.354,1.659,2.463,16.887,2.451,18.581c-0.01,2.089-0.168,2.094-1.138,2.623
		c-0.96,0.523-1.22,0.169-1.392,1.135c3.146,0.605,11.266,2.441,13.801,2.961c0.788-1.223-1.748-1.396-0.965-4.096
		c0.44-0.787,8.562-12.83,9.355-13.527c0.787-0.699,3.841-0.263,3.574-0.872c0.789-0.352-1.283-2.179-1.831-4.793
		c-0.547-2.621-0.541-4.388-0.696-5.765c-0.037-0.005-0.603,0.224-0.7,0.174c-1.907,2.644-13.54,20.333-13.54,20.333
		s-0.783,0.347-0.783-0.257c-0.263-1.57-2.277-15.45-2.015-16.673c0.272-1.313,1.569-1.457,2.534-2.18
		c0.016-0.019-0.162-0.258-0.088-0.525C367.422,252.975,361.527,251.847,357.762,251.283"/>
	<path clip-path="url(#SVGID_2_)" fill="#FFFFFF" d="M165.479,274.057c-3.393,1.165-5.413,2.343-10.038,4.19
		c0.183-0.074-0.242,0.361-0.347,0.524c0.382,0.555,3.492,0.52,4.274,1.739c0.782,1.222,7.166,15.976,7.597,17.633
		c0.441,1.656-0.882,2.626-1.485,3.923c0,0-0.436,0.699,0,0.611c0.439-0.082,10.043-3.839,10.486-4.187
		c0.438-0.348-0.095-0.505-0.26-0.614c0.207,0.125-1.991,0.174-3.402-1.569c-1.144-1.397-7.26-16.201-7.869-18.062
		c0-1.392,0.785-2.789,1.226-3.486C165.963,274.266,165.988,273.874,165.479,274.057"/>
	<path clip-path="url(#SVGID_2_)" fill="#FFFFFF" d="M151.766,280.604c0,0-0.906,0.733-1.396,0.956
		c-1.426,0.654-3.259,0.704-4.888,1.045c-4.731,0.996-8.988,2.764-10.143,7.335c-0.588,2.347-0.173,4.368,0.789,5.933
		c0.945,1.536,2.233,2.738,4.283,3.145c3.324,0.648,6.813-0.362,9.786-0.874c2.639-0.464,5.287-0.671,5.853,1.398
		c0.962,3.505-5.63,7.132-8.915,5.23c-1.025-0.589-1.653-2.095-2.268-3.053c-0.177-0.092-0.331,0.041-0.44,0
		c-0.06,0.09-1.649,4.504-2.535,10.644c0.193-0.005,0.104,0.015,0.544-0.077c0.441-0.086,2.302-1.314,3.739-1.577
		c6.829-1.276,12.316-1.786,14.946-7.333c0.777-1.656,0.914-4.506,0.173-6.371c-0.995-2.458-2.714-3.832-6.467-4.534
		c-3.413-0.694-5.329,1.569-13.02,1.22c-3.49-2.265,1.555-5.515,0.085-4.274c0.671-0.572,3.233-1.878,4.457-1.738
		c1.411,0.144,2.636,2.342,3.056,2.877c0.425,0.533,0.464,0.148,0.525,0c0.738-1.794,2.268-9.772,2.268-9.772L151.766,280.604"/>
	<path clip-path="url(#SVGID_2_)" fill="#FFFFFF" d="M274.857,252.945c0.872,0.431,2.887,7.614,2.62,8.632
		c-0.249,0.961-7.86,1.749-8.563,0.966c-0.525-1.05,0.175-8.637,0.962-8.988C270.662,253.204,273.193,252.852,274.857,252.945
		 M280.354,247.795c-7.864,1.031-10.389,1.482-18.6,2.355c-0.876,0.528,0.584,1.14,0.873,1.399c0.583,0.518,1.398,1.396,1.398,2.525
		c0,1.135-0.359,12.768-1.221,17.887c-0.201,1.106-1.09,2.778-2.015,3.23c-2.818,1.387-5.661-2.332-6.637-3.576
		c-0.307-0.392-2.142-2.545-2.193-2.708c-0.278-1.025,2.089-3.239,2.54-4.011c2.941-5.066,0.862-10.251-3.145-12.568
		c-2.48-1.427-6.402-2.061-9.959-1.219c-1.595,0.381-2.991,1.114-4.542,1.575c-0.49-0.796-0.715-1.704-1.05-2.704
		c-0.079-0.267-0.372-0.143-0.436-0.173c-2.159,3.135-3.59,4.897-5.764,6.542c-0.089,0.054-0.376,0.594-0.437,0.608l0.168,0.347
		c0.317,0.43,1.031,0.579,1.491,0.873c0.431,0.281,1.063,0.791,1.228,1.311c0.495,1.609,2.877,13.347,3.135,18.061
		c-1.654,2.615-3.016,3.287-5.151,2.967c-3.273-0.5-8.602-8.142-7.685-6.196c0.922-1.219,2.16-2.781,2.793-4.274
		c1.877-4.451,0.139-8.809-2.706-10.908c-3.221-2.378-8.649-2.471-12.665-0.783c-0.659,0.267-2.511,1.728-3.234,1.575
		c-0.775-0.17-0.743-1.773-1.138-2.363c-0.233-0.391-0.7-0.436-0.779-0.086c-1.228,1.048-1.896,4.261-5.334,7.153
		c0.036,0.069,0,0.277,0,0.352c1.046,0.46,2.303,0.808,2.882,1.749c0.704,1.114,4.542,14.743,4.805,17.278
		c0.119,1.124-1.11,2.669-1.748,3.14c-0.293,0.208-0.748,0.585-1.357,0.526c-0.604-0.234-1.265-0.814-1.699-1.051
		c-1.208-0.668-2.376-1.258-3.58-1.921c-0.775-0.427-1.579-1.02-2.446-1.396c-1.792-0.783-0.375,2.412-1.489,3.225
		c-0.666,0.495-9.154,3.605-10.045,3.407c-0.129-0.03-0.554-0.401-0.614-0.524c-0.847-1.764-1.995-4.632-0.872-5.325
		c0.639-0.392,1.461-0.434,2.185-0.698c0.936-0.336,2.228-1.065,3.58-0.867c1.234,0.172,2.843,1.701,3.149,0.956
		c-0.965-4.045-1.713-6.096-2.887-8.726c-0.244-0.548-0.095-0.332-0.609-0.609c-0.97,2.05-0.876,2.833-3.491,4.189
		c-0.437,0.218-3.61,1.23-4.031,1.13c-0.632-0.159-1.875-3.522-2.004-4.358c-0.205-1.352,0.543-1.451,1.355-1.789
		c2.08-0.855,4.283-1.649,6.725-2.228c0.476-0.114,1.158-0.386,1.792-0.258c0.629,0.119,1.302,1.694,2.184,1.828
		c0.851-1.329,1.713-2.852,2.363-4.358c0.583-1.371,1.163-2.616,1.48-4.194c-0.153-0.08-0.317-0.381-0.52-0.347
		c-1.005,0.175-1.94,0.579-2.625,0.789c-4.11,1.257-8.082,2.599-12.055,3.921c-3.544,1.189-7.095,2.291-10.482,3.669
		c0.125,0.233-0.021,0.387,0.173,0.521c0.292,0.198,0.713,0.144,1.05,0.262c0.97,0.352,1.921,0.791,2.714,1.917
		c0.787,1.144,5.863,15.921,6.369,18.592c-0.64,2.939-2.179,2.613-2.096,3.925c0.342,0.881,8.722-3.253,30.496-9.778
		c2.105-0.625,4.274-1.23,6.369-1.741c1.084-0.266,1.837-0.406,2.625-0.876c-0.243-0.193,0.039-0.208-0.436-0.427
		c-3.199-1.52-4.057-2.064-4.981-5.85c-0.108-0.444-0.268-1.518,0.262-1.746c0.212-0.095,5.234-0.525,5.501-0.436
		c-0.282-0.095,7.279,7.11,10.83,12.034c0.648,0.648,1.317,0.877,1.402-0.778c0-1.66,1.573-5.933,2.45-6.546
		c0.872-0.613,7.152-1.219,13.104-2.354c-0.044-0.128,0.045-0.316,0-0.44c-0.075-0.218-1.719-0.782-2.015-0.957
		c-1.12-0.688-2.075-1.697-2.441-3.144c-0.202-0.786-0.833-3.195-0.268-3.749c0.04-0.041,0.119-0.243,0.179-0.267
		c0.227-0.084,4.367,0.174,5.498,0c5.773,6.2,8.916,11.954,9.878,12.831c0.738,0.668,1.016-0.184,1.04-0.258
		c0.867-1.753,2.015-5.67,3.07-6.111c2.069-0.371,9.345-0.96,10.566-1.486c0.349-0.609,0.175-0.352-0.873-0.96
		c-1.056-0.606-1.501-3.149-1.486-3.317c0.049-0.61,0.172-2.308,0.779-2.784c0.533-0.43,8.061-1.298,9.793-1.055
		c0.643,0.327,1.862,3.165,1.482,4.368c-0.457,1.457-1.747,2.441-0.866,2.521c1.396,0.143,6.094-0.734,8.556-0.862
		c0.842-0.055,0.218-0.41-1.055-2.1c-2.693-3.591-6.11-16.406-6.284-20.239c0-0.701,0.931-1.402,1.224-2.099
		C282.232,247.84,281.419,247.657,280.354,247.795 M214.574,262.192c3.116-0.277,5.201,0.966,5.511,3.575
		c0.081,0.748,0.089,1.635-0.178,2.274c-0.787,1.842-3.442,3.394-5.77,3.664c-1.49,0.163-2.598-0.282-3.49-0.703
		c-2.877-1.352-2.744-5.029-0.526-6.974C211.128,263.133,212.91,262.34,214.574,262.192 M244.718,255.649
		c3.6-0.163,6.71,2.891,4.725,6.542c-1.447,2.615-7.206,4.215-10.054,1.744c-2.074-1.795-1.287-5.047,0.526-6.456
		C241.044,256.596,242.872,255.725,244.718,255.649"/>
	<path clip-path="url(#SVGID_2_)" fill="#FFFFFF" d="M390.347,259.578c-0.306,0.043-0.393,0.352-0.393,0.352
		s1.521,2.263,1.176,3.659c-0.347,1.401-8.077,15.926-8.735,16.581c-0.693,0.742-2.531,2.22-3.542,2.356
		c-0.343,0.129-0.505,0.456-0.178,0.57c1.578,0.554,7.313,2.349,9.3,3.041c0.551,0.194,0.367-0.475,0.367-0.475
		s-0.62-1.435-0.873-2.185c-0.262-0.738,1.163-4.453,2.705-4.531c0.935,0.243,8.825,2.484,9.172,3.14
		c0.346,0.653,0.346,2.579-0.436,4.541c-0.139,0.347-1.491,1.051-1.923,1.219c-0.438,0.178-0.354,0.693-0.354,0.693l8.743,2.616
		c0,0,0.535,0.117,0.308-0.415c-0.352-0.905-0.569-2.311-1.01-3.417c-0.792-2.008,1.487-16.053,2.269-18.321
		c0.529-1.578,1.86-2.407,2.807-2.783c0.349-0.141,0.253-0.556,0.03-0.664C407.947,264.594,390.655,259.527,390.347,259.578
		 M401.791,267.862c0.223,0.961-0.871,8.072-1.529,8.681c-0.659,0.615-7.903-1.436-8.211-2.44c-0.397-0.784,3.095-6.809,3.933-7.989
		C397.463,265.554,400.87,266.683,401.791,267.862"/>
	<path clip-path="url(#SVGID_2_)" fill="#FFFFFF" d="M423.675,266.733c-3.669,1.842-6.204,2.527-8.344,3.001
		c-0.52,0.569,1.485,1.748,1.005,3.1c0.084,1.527-4.329,14.069-5.378,15.555c-0.386,0.544-2.361,2.732-3.575,2.986
		c-0.565,0.44,0.489,0.921,0.608,0.965c5.066,1.832,13.55,5.448,17.124,5.017c7.38-0.178,10.966-8.334,11.361-9.512
		c0.6-1.804,2.327-7.786-0.886-12.169c-2.149-2.807-5.132-5.974-11.133-5.372C422.556,270.399,425.126,267.02,423.675,266.733
		 M420.974,277.678c2.043-3.095,6.059-3.491,9.166-0.471c1.281,1.238,2.261,4.438,1.726,6.354c-1.01,3.705-3.208,7.855-6.397,8.472
		c-3.015,0.61-6.947-0.568-8.739-2.276C416.599,288.844,419.619,280.648,420.974,277.678"/>
	<path clip-path="url(#SVGID_2_)" fill="#FFFFFF" d="M445.737,277.988c-0.021,0.146-0.45,0.166-0.109,0.597
		c0.356,1.316,0.896,2.02,0.454,3.243c-0.43,1.208-9.872,14.92-11.179,15.699c-0.778,0.703-2.848,1.536-3.315,1.652
		c-0.484,0.134-0.362,0.491-0.362,0.622c3.409,1.479,8.081,3.367,8.827,3.668c0.443,0.17,0.612-0.352,0.178-1.051
		c-1.234-2.357,1.565-4.892,2.357-5.318c1.485,0,7.952,2.437,9.438,4.443c0,0.961-0.308,4.402-2.536,4.977
		c-0.986,0.252-1.134,0.609-0.604,0.871c0.342,0.262,5.909,2.605,8.127,3.402c0,0,0.645,0.09,0.169-0.604
		c-0.48-0.702-0.437-2.103-0.623-3.669c-0.165-1.57,3.409-15.966,4.814-18.058c0.869-1.31,2.083-1.835,2.706-2.008
		c0.422-0.128,0.259-0.347,0.259-0.525C463.729,285.487,447.204,278.416,445.737,277.988 M451.15,284.789
		c1.401,0.266,3.584,0.967,4.713,2.1c0.695,0.873-1.831,8.2-2.45,8.984c-1.649-0.089-7.191-2.957-7.676-3.318
		C445.985,290.944,450.185,284.705,451.15,284.789"/>
	<path clip-path="url(#SVGID_2_)" fill="#FFFFFF" d="M465.862,295.372c1.947,1.323,5.007,0.872,6.068-1.253
		c0.931-1.883,0.326-4.745-1.562-5.658c-2.445-1.197-4.529-0.463-5.788,1.383C463.436,291.525,464.194,294.243,465.862,295.372
		 M467.398,288.539c5.412-0.957,5.809,6.387,1.837,6.987C463.655,296.362,463.254,289.28,467.398,288.539"/>
	<path clip-path="url(#SVGID_2_)" fill="#FFFFFF" d="M467.838,289.068c-0.693,1.476-1.51,2.718-2.188,4.189
		c0.252,0.119,0.51,0.302,0.789,0.433c0.217-0.36,0.593-1.45,0.958-1.657c0.338-0.201,1.03,0.5,1.135,0.616
		c0.213,1.521-0.642,1.991,0.529,2.44c0.139-0.32,0.382-0.475,0.435-0.781c0.04-0.283-0.009-0.965,0.084-1.313
		c0.19-0.697,2.048-0.804,1.141-2.358C470.211,289.771,468.735,289.533,467.838,289.068 M468.358,290.375
		c0.218,0.104,1.188,0.397,1.312,0.614c0.108,0.193,0,0.519,0,0.519c-0.074,0.045-0.135,0.312-0.266,0.347
		c-0.654,0.193-1.348-0.396-1.661-0.6C467.879,290.929,468.253,290.662,468.358,290.375"/>
</g>
<path fill="#FFFFFF" d="M294.745,590.596c-78.343,0-151.997-30.508-207.393-85.905C31.955,449.294,1.447,375.641,1.447,297.298
	S31.955,145.301,87.352,89.905C142.749,34.508,216.402,4,294.745,4s151.996,30.508,207.393,85.905
	c55.397,55.396,85.905,129.05,85.905,207.393s-30.508,151.996-85.905,207.393C446.741,560.088,373.088,590.596,294.745,590.596z
	 M294.745,14c-75.672,0-146.814,29.468-200.322,82.976c-53.508,53.508-82.976,124.65-82.976,200.322S40.915,444.112,94.423,497.62
	c53.508,53.508,124.65,82.976,200.322,82.976s146.814-29.468,200.322-82.976s82.976-124.65,82.976-200.322
	s-29.468-146.814-82.976-200.322C441.56,43.468,370.417,14,294.745,14z"/>
</svg>
