<?xml version="1.0" encoding="utf-8"?>
<!-- Generator: Adobe Illustrator 19.1.0, SVG Export Plug-In . SVG Version: 6.00 Build 0)  -->
<svg version="1.1" id="Layer_1" xmlns="http://www.w3.org/2000/svg" xmlns:xlink="http://www.w3.org/1999/xlink" x="0px" y="0px"
	 viewBox="0 0 600 493.3" style="enable-background:new 0 0 600 493.3;" xml:space="preserve">
<style type="text/css">
	.st0{fill:#FFFFFF;}
	.st1{fill:none;stroke:#000000;stroke-width:3;stroke-miterlimit:10;}
	.st2{fill:#FFFFFF;stroke:#000000;stroke-width:2;stroke-miterlimit:10;}
</style>
<g>
	<g>
		<path class="st0" d="M401.7,424c-1.4,0.2-3.7,0.3-5,0c-0.2-1.1-0.7-1.8-0.9-2.9c1.8,0.8,4.2,0.8,6,0
			C401.7,422,401.6,422.8,401.7,424 M410.8,423.3c-1.2,0.8-3.4,1.7-5,2.2c-7.5,2.3-17.2,0.3-22.7-2.9c-0.7-5.1-1.8-10.6-4.8-14
			c-7.3,1.5-15.1,1.1-21.2-1.4c-2.2-0.9-4-2.6-6.3-3.9c-2.4-1.3-4.2-2.5-6-4.1c-1.8-1.6-3.4-3.1-5.1-4.8c-3.2-3.1-8-7.1-13.1-6.3
			c-3.7,0.6-7.5,4.1-6.8,8.7c0.5,3.5,5.3,8.2,8.9,5.8c1.8-1.2,2.7-5.8,0.2-6.3c-1.5,2.1-2.3,1.1-2.9,0.7c-0.5-0.6-0.5-2.1,0.2-2.6
			c6.8-3.5,8.7,9.5,1.9,10.9c-6.3,0.9-11.7-6.4-10.2-12.1c1-3.7,5.3-7.7,10.6-7.2c1.5,0.2,3,0.5,4.6,1.2c7.8,3.5,13.4,12.3,22.2,17
			c6.6,3.6,14,4,23.7,2.4c0.2-0.1,0.2,0,0.3,0.2c3.3,3.1,5.3,8.1,5.5,13.8c-0.1,0.8-1,0.7-1.2,1.4c0.7,0,0.7-0.7,1.5-0.5
			c5.1,2.5,13.7,4.6,20.3,2.4c1.5-0.5,4.9-2.4,4.6-4.1c-0.5-3-9-3.3-10.2-1c0.4,0.6,1.8,0.2,2.4,0.7c-1.1,2.5-5.8,1.3-7.3,0
			c0.4-2.2,3.4-3.2,5.8-3.7c3.4-0.8,7.8-0.2,10.2,1.2c0.9,0.5,2.7,1.8,2.7,2.9C413.6,420.9,411.7,422.7,410.8,423.3 M398.3,463.3
			c-7.3,2.8-15.2-2.6-16-9.2c-0.5-4.1,2.4-7.6,6.8-7c3.9,0.5,7.5,4.8,6.8,8.5c-0.5,2.8-5.5,3.3-5.6-0.7c0.9-0.6,1.1,0.7,2.4,0.3
			c1.7-3.2-2.9-6.3-6.3-4.8c-3.3,1.5-1.1,7.1,0.9,9c4.1,3.9,11.9,3.1,13.8-1.7c1.1-4.9-1.6-8.2-3.8-10.9c2.6,1.3,3.9,2,4.9,3.9
			C404.4,454.9,403.4,461.4,398.3,463.3 M383.7,471c-3.1,3-6.2,6-9.1,9.2c-3.2-1.3-4.7-3.3-6-6.4c0.5-1.2,2.3-2.7,3.3-3.4
			c5.5-4.2,7.8-9.3,9.8-16.6c0,1.2,0,1.9,0.3,2.5c2,5.3,6.3,9,13.2,8.9C390.8,467.3,386.9,467.8,383.7,471 M336.6,461.9
			c-3.4-0.6-7.7-4.1-8.5-7.2c-1.3-4.2,0.5-8.9,3.2-10.4c2.3-1.1,4.5-1,6.8,0.2c3.8,1.9,2.9,8.4-1,9.2c-1.7,0.3-3.9-0.6-4.1-2.2
			c-0.2-1.4,0.7-2.6,2.4-1.9c0.6,0.7-0.5,0.7-0.3,1.4c0.8,1.1,2.6,0.6,3.4-0.2c1.9-3.5-3.8-6.5-6.7-4.3c-3.4,2.7-1.5,9.2,1.2,11.6
			c2.3,1.7,4.6,2.3,7.3,2.2c4.5-0.1,7.4-3.4,11.8-3.8C347.4,458.6,343,463,336.6,461.9 M311.7,449.6c-1.2-0.4-1.8-2.7-1.4-5.2
			c0.7-2.3,2.3-3.7,4.4-3.8c1.2,0,2.9,1.1,4.4,1.7c3.2,1.3,6.8,2.4,10.7,2.2c-1.5,1.7-2.9,3.4-2.9,6.1c0,1-0.2,2.4,0.7,5.3
			C323.1,452.4,319,449.3,311.7,449.6 M309.6,445.9c-6-2.3-11.9,0.5-15,3.6c-2.8-3.2-9.2-6-14.5-3.2v-1.5c4.5-1.9,9.5-1,13,1.2
			c0.4,0.3,1.5,1.4,1.5,1.4c0.6,0,3.1-2.3,4.3-2.7c2.3-0.7,4.4-1,6.5-0.9C306.9,443.8,310,443.8,309.6,445.9 M278.3,449.6
			c-1.4,0.1-2.5,0-3.3,0.1c-5.4,0.4-9.4,3.5-13.1,5.5c1.6-4.2,0.9-8.2-1.4-10.9c2.2-0.1,3.9-0.1,5.8-0.5c3.4-0.8,6-3.4,9.2-2.9
			c1.6,0.3,3,0.9,3.6,2.4C279.7,445.2,279.4,449.1,278.3,449.6 M243.8,461c1.2-0.1,2.3,0,3.3-0.1c7-0.1,13.1-4.3,12.5-11.6
			c-0.2-2.2-2.2-4.1-4.6-3.9c-1.8,0.1-5,2.7-3.8,5.1c0.4,0.7,1.1,0.9,1.7,0.8c1.6-0.2,0.6-1.6,1.5-2.4c0.3-0.1,0.5-0.1,0.7,0
			c1,0.5,1.1,1.9,0.5,3.1c-0.5,0.9-1.4,1.7-2.2,1.8c-2.1,0.3-3.6-1-4.3-2.4c-2.3-7.4,7.9-10.7,11.6-5.7
			C266.4,454.9,252.9,466.2,243.8,461 M218,468.6c0.9,1.3,3.8,3.8,3.8,5.1c0,1.4-4.5,4.2-5.6,4.6c-0.7,0.3-2.5,0.6-3.1,0.5
			c-1-0.2-2.7-3-3.6-4.1c-1.2-1.5-2.1-3-3.4-4.3c-3.7-3.5-8-5.2-12.5-7.1c3.5,0.3,7-0.6,9.7-2.8c2.1-1.7,4.6-5.6,4.3-8.5
			c0.3,0,0.1-0.1,0.4-0.1C209.8,459,214.1,463.2,218,468.6 M201.1,457.5c-1.3,2.5-5,2.7-6.1,0c1.9,0.3,4-0.3,4.6-1.9
			C200.4,455.9,200.6,456.8,201.1,457.5 M186.6,455.3c0.1-4.7,3.9-9.1,7.5-10.1c-1.7,2.9-7.2,8.4-4.4,13.1
			c3.1,5.2,12.9,1.3,14.3-3.4c2.3-7.3-8.7-5.5-8-0.3c0.8,0.9,2.5-1.3,3.2,0c0.4,2.3-4.2,3.4-5.8,1.7c-0.1-3,1.6-6.1,3.6-7.7
			c3-2.5,9.3-2.9,9.9,2.2c0.7,5.9-4.9,11-10.6,11.8C190.7,463.3,186.5,460.3,186.6,455.3 M247.3,454.4c0.2,0,0.4,0.1,0.6,0.1
			C247.7,454.5,247.5,454.5,247.3,454.4 M258.2,448c0.7,0.3,0.8,1.8,0.7,2.6c-0.6,0.4-1.4,0.7-2.3,0.9c-0.1-1.4-0.3-1.8-0.9-2.7
			C256.8,448.5,257.5,448.3,258.2,448 M333.5,449.2c-0.7,0.4-1,1.2-1,2.4c-0.7,0-1.3-0.4-2-0.5c-0.2-1.4,0.3-2.4,0.8-2.7
			C332.3,448.3,332.6,449,333.5,449.2 M389.6,455.6c0.7,1.3,1.9,2.9,3.6,2.7c-1.8,1.8-4.1,3.2-6,0.3
			C387.8,457.5,388.9,456.7,389.6,455.6 M325.6,397c-1.9,0.3-4.1,0.3-5-0.1c-0.3-1.1-0.3-1.4,0-2.1c0.9-0.6,4.2-0.3,5-0.4
			C325.1,395,324.7,396.3,325.6,397 M179.1,439.5c0.4-3.3,0.8-6.1,0.5-10.1c8.9,6.8,24.9,1.6,32.9-3.2c0.3-4.9,1.4-9,3.6-12.1
			c20.4,3.5,32.2-8,42.2-17.2c-0.2,0.8-0.4,1.1-0.5,2.2c-0.7,6.3,5.3,8.5,10.8,6.7c6.2-1.5,12.7-3,21-3.4c8.8-0.4,16.2,0.4,23.9,1.9
			c7.3,1.4,20.6,6.3,19.8-6.2c0.7,0.5,1,0.9,1.4,1.2c1.3,1.1,2.7,2.4,4.1,3.6c7.7,7.9,20.8,14.8,35.3,12.1c2.2,2.9,3.2,7,3.4,11.9
			c7.5,5.2,23.3,10.5,33.1,3.9c-0.6,2.3,0.6,6.2,0.5,8c-1,1.7-2.9,2.5-4.8,3.1c-5.1,1.5-10-1.4-14-2.6c-1.3,1.6-2,3.8-3.2,5.5
			c0.2,0.9,1,1.3,0.8,2c-9.3-2.3-9.1,10.2-12.6,15.2c-1.6-1.9-2.5-3.5-5.4-6.2c-0.4-0.3-3.7-2.7-5.3-3.4c-1.9-1-5.7-1.9-6.2-2
			c-5-0.9-10.2,0.3-14,2c-2.6,1.2-5.6,2.9-7.7,1.5c3.9-2.4,3.3-9.6-2-10.7c-2-0.4-4.3-0.4-6.2,0.8c-3.5,0.1-7.4-1-10.2-2
			c-3.4-1.2-5-2.8-7.7-1.4c-4.8-3.1-14.6-2.8-18.3,1c-3.7-3.3-12.6-4.8-17.1-1.2c-3.6-1.2-6.6,1.3-9.9,2.4c-1.8,0.6-4.5,0.8-7,0.7
			c-1.9-0.1-3.8-1-5.8-0.9c-4.9,0.4-9.5,7.2-3.9,11.3c-0.1,0.5-1.6,0.7-2,0.6c-3-0.8-6.1-3-9.4-3.9c-5-1.3-11.5-0.5-15.9,1.5
			c-4.3,2-7.5,5.2-10.4,8c-4.6-3.7-3.4-17.3-13.7-13.3c-0.6-0.4,1-1.6,1.4-2.2c-1.2-1.8-2.1-3.8-3.2-5.6
			C192.7,441.2,183.6,442.6,179.1,439.5 M264.9,397.2c0.4-1,0.6-2.1-0.5-2.6c1.6-0.4,4.1-0.4,5.5,0c0.3,1,0.2,2.1-0.2,2.6
			C268,397,266.1,397.4,264.9,397.2 M188.3,420.7c1,0.8,3.8,0.7,5.5,0.2c0,1.2-0.6,1.3-0.6,2.6c-1.8,0.3-3.9,0.6-5.3-0.1
			C188.1,422.4,188.3,421.7,188.3,420.7 M177.3,419.8c-0.1-1.4,2.5-3.4,4.6-3.9c4.9-1.2,10.2,0.6,12.1,2.9c-0.3,2.2-5,2.6-5.8,0.5
			c0.2-1.3,1.9-0.3,2.2-0.3c-1.5-3.5-14.2-1.2-8.5,3.1c5.5,4.2,17.3,1.5,23-1.4c1-5.5,3.5-10.5,6.7-14.5
			c16.4,4.2,28.9-4.4,37.4-12.8c4.4-4.4,10.5-9.9,18.8-5.8c2.2,1.1,4.9,4,5.1,7.2c0.3,4.2-3.2,9.5-7.5,10.4
			c-2.9,0.6-5.9-0.9-6.8-3.6c-1-2.8,0.7-8.1,4.6-7.2c0.8,0.2,1.7,1.2,1.2,2.4c-1.1,1.3-1.9,1-2.4-0.2c-3.1,2-0.8,7.1,3.8,6.1
			c2.9-0.6,5.9-5.5,4.4-9.5c-1.1-3.1-5.2-6-9.7-5.1c-5.8,1.2-10.5,7.4-15.2,10.9c-8.5,6.5-18.5,12-32.4,9.2c-4,2.8-4.9,8.8-6,14
			c-3.1,1.3-6.7,2.6-11.3,3.4c-4.3,0.8-9.8,1-13-0.7C181.6,424.4,177.5,421.5,177.3,419.8 M321.6,387.1c0.2,0.3-1.1,0.8-1.7,1.4
			c-1.4,1.4-3.1,3.8-3.1,6.5c-0.1,4.7,3.1,8,6.1,10.2c-8.5-1.9-18-4.1-27.2-3.9c-10.4,0.2-17.1,1-26.2,3.3c3.2-2.5,5.2-5.9,4.2-10.8
			c-0.7-3.5-3.3-5.6-5.9-7.5C284.3,389.6,303.9,390.3,321.6,387.1 M413.2,423.4c0.5-1.5,1.5-3.1,1.4-4.3c-0.4-3.3-7.1-4.8-11.6-4.6
			c-2.1,0.1-5.2,0.7-7,1.7c-0.9,0.5-2.5,1.9-2.6,2.7c-0.1,1.4,1.7,1.9,1.4,3.9c-3.4-0.1-6.4-0.7-8.4-2.2c-1-6.7-3-12.3-6.8-16.2
			c-10.2,2.7-19.2,1.3-26.1-3.4c-3.2-2.2-5.9-5.1-8.9-7.7c-3-2.6-6.2-5.6-9.2-7.3c-1.2-0.7-2.9-1.4-4.1-1.7
			c-4.9-1.1-9.4,0.6-13.1,1.4c-12.5,2.4-27.8,2.5-40.8,0.5c-5.2-0.8-10.4-2.2-15.5-2.4c-6.4-0.3-11.2,5-14.7,8.5
			c-8.2,8.2-19.6,16.7-36.4,11.6c-3.4,4.5-5.6,10.1-7.8,15.7c-2.5,0.8-5.2,2.2-7.9,2.2c2.9-4.5-3.2-6.9-7.7-7.3
			c-5-0.4-11.6,1-11.9,4.6c-0.2,1.5,1,3.7,1.5,5.8c1.4,6.1,1.2,13.3-1,18.2c1.7,3.7,5.7,5.9,11.1,5.3c-1,1.7-2.4,4.3-2.2,7.5
			c0.5,7,6.2,7.7,11.8,10.2c5.2,2.4,9.8,5.8,12.6,9.7c0.9,1.2,1.7,3.9,3.1,4.3c1,0.3,3.2-0.3,4.1-0.7c1.6-0.6,7-4,6.8-5.8
			c-0.1-0.7-1.9-2.1-2.9-3.2c-1-1.2-2.6-2.6-2.6-3.6c0-1.2,2.8-3.9,3.2-4.3c1.8-1.4,6.4-4.2,9.2-4.6c6.1-0.9,9.2,2.2,13,4.1
			c4.8,2.4,11.5,1.7,15.2-1.4c2.1-1.7,3.3-4.2,5.5-5.6c1-0.7,2.3-1.4,3.5-2.1c1.2-0.6,2.4-1.1,3.6-1.5c2-0.6,4.4-1,7.5-1.2
			c1.3-0.1,0.9-2.1,2-3c1.3-1,3.5-1.2,4.9-1.2c3.7,0.1,6.7,2.8,9.2,4.8c2.9-3,9-6.7,14.7-3.8c0.1,1.4,0.8,2.6,1.6,3
			c1.6,0.3,3.3,0.2,5.2,0.5c5.3,0.9,9.9,4.9,13.3,7.8c2.9,2.5,5.9,5.4,11.6,4.1c5.9-1.4,9.7-6.1,17.4-5.8c5.2,0.2,7.2,3,9.7,5.8
			c1.6,1.8,3.4,3.4,4.6,5.3c-1.7,2.4-5.3,3.8-5.5,5.3c-0.1,1.3,1.8,3.9,2.7,4.9c0.9,1.1,3.2,3.1,4.6,2.9c0.8-0.1,2-1.7,2.9-2.7
			c2.8-3,6.1-6.2,9.4-8c2.2-1.2,4.7-2.1,7-3.2c2.5-1.2,5.3-2,7.2-3.2c3.6-2.4,5.1-10.4,2.2-13.8c3-0.3,6.9-2.2,8.7-4.3
			c0.6-0.7,1.6-2.1,1.7-2.9c0.1-0.9-1-3.1-1.2-4.1C411.7,433.7,411.8,427.4,413.2,423.4"/>
		<g>
			<path class="st0" d="M307.4,411.5c-0.6,0.5-1.2,1.2-1.8,1.6c-0.6,0.4-1.2,0.7-1.8,1.1c0.2,0.4,0,0.2,0.5,0.6
				c0.7,0.6,0.3,3.3,0.3,4.4c0,1.1-0.3,0.6-0.4,0.7c-0.3-0.1-3.5-4.9-3.6-5.5c-0.1-0.4,0.3-0.7,0.5-0.9c0.1-0.1,0.7-0.4,0.3-0.5
				c-1-0.2-5-0.5-6.1-0.5c0,0.1-0.3,0.2-0.1,0.3c0.7,0.5,1.4,1.4,1.4,1.9c-0.1,2.1-0.3,9.3-1,10.1c-0.2,0.2-0.9,0.3-1.1,0.5
				c-0.1,0.1,0,0.2,0,0.3c1,0.6,2.8,3.2,3.2,4.2c0.1,0,0.4,0,0.4-0.2c0.6-6.9,1-11.9,1-11.9s0.1-0.5,0.3-0.1c0.2,0.1,4.2,6,4.7,6.8
				c0.4,0.7-0.9,1.5-1.5,1.8c-0.2,0.2,0.2,0.3,0.2,0.3c4.5-0.1,11.9,1,18.4,1.7c0.4,0,0.9,0.1,1.1,0.1c0.2,0,0.3-0.3,0.3-0.4
				c-0.7-1.2-2-3.1-2.6-3.8c-0.3-0.3-0.4,0-0.4,0.1c-0.3,0.4-0.5,1.2-0.8,1.3c-0.2,0.2-5.2-0.5-5.5-0.7c-0.1-0.4,0.1-2.6,0.4-2.8
				c0.3-0.2,0.6-0.1,0.7,0c1.1,0.1,2.1,0.1,2.8,0.6c0.4,0.3,0.6,0.6,0.7,1c0.1,0,0.3,0.2,0.3-0.1c0.3-0.7,0.5-3.6,0.5-4.6
				c0-0.3-0.3-0.4-0.3-0.4s-0.7,0.8-1.2,1c-0.3,0.2-2.9,0.4-3.4-0.2c-0.2-0.7,0.1-2.7,0.4-2.8c0.2-0.1,3.9,0.3,4.9,0.6
				c0.7,0.2,0.3,1.4,0.8,1.4c0.4,0,3.3-2.5,3.6-2.9c0.1-0.1,0-0.5-0.3-0.5c-1.1-0.2-12.2-1.6-12.9-1.5c-0.3,0.1-0.1,0.3-0.1,0.3
				s1,0.9,1,1.5c-0.1,1.1-0.2,6.8-1,9.7c-0.1,0.5-1.4,1.6-2.3,1.4c-0.4-0.1-1-1-1.1-1.6c0-1,0.8-13,0.8-13S307.6,411.6,307.4,411.5"
				/>
			<path class="st0" d="M324.5,415c0,0.1-0.2,0.1-0.1,0.3c0,0.3,0.8,0.7,1.3,2.1c0.2,0.8,1.2,8.5,1.2,9.3c0,1-0.1,1-0.6,1.3
				c-0.5,0.3-0.6,0.1-0.7,0.6c1.6,0.3,5.6,1.2,6.9,1.5c0.4-0.6-0.9-0.7-0.5-2.1c0.2-0.4,4.3-6.4,4.7-6.8c0.4-0.4,1.9-0.1,1.8-0.4
				c0.4-0.2-0.6-1.1-0.9-2.4c-0.3-1.3-0.3-2.2-0.3-2.9c0,0-0.3,0.1-0.4,0.1c-1,1.3-6.8,10.2-6.8,10.2s-0.4,0.2-0.4-0.1
				c-0.1-0.8-1.1-7.7-1-8.4c0.1-0.7,0.8-0.7,1.3-1.1c0,0-0.1-0.1,0-0.3C329.3,415.9,326.3,415.3,324.5,415"/>
			<path class="st0" d="M228.1,426.4c-1.7,0.6-2.7,1.2-5,2.1c0.1,0-0.1,0.2-0.2,0.3c0.2,0.3,1.7,0.3,2.1,0.9c0.4,0.6,3.6,8,3.8,8.8
				c0.2,0.8-0.4,1.3-0.7,2c0,0-0.2,0.4,0,0.3c0.2,0,5-1.9,5.3-2.1c0.2-0.2,0-0.3-0.1-0.3c0.1,0.1-1,0.1-1.7-0.8
				c-0.6-0.7-3.6-8.1-3.9-9c0-0.7,0.4-1.4,0.6-1.7C228.4,426.6,228.4,426.4,228.1,426.4"/>
			<path class="st0" d="M221.3,429.7c0,0-0.5,0.4-0.7,0.5c-0.7,0.3-1.6,0.4-2.4,0.5c-2.4,0.5-4.5,1.4-5.1,3.7
				c-0.3,1.2-0.1,2.2,0.4,3c0.5,0.8,1.1,1.4,2.1,1.6c1.7,0.3,3.4-0.2,4.9-0.4c1.3-0.2,2.6-0.3,2.9,0.7c0.5,1.8-2.8,3.6-4.5,2.6
				c-0.5-0.3-0.8-1-1.1-1.5c-0.1,0-0.2,0-0.2,0c0,0-0.8,2.3-1.3,5.3c0.1,0,0.1,0,0.3,0c0.2,0,1.2-0.7,1.9-0.8
				c3.4-0.6,6.2-0.9,7.5-3.7c0.4-0.8,0.5-2.3,0.1-3.2c-0.5-1.2-1.4-1.9-3.2-2.3c-1.7-0.3-2.7,0.8-6.5,0.6c-1.7-1.1,0.8-2.8,0-2.1
				c0.3-0.3,1.6-0.9,2.2-0.9c0.7,0.1,1.3,1.2,1.5,1.4c0.2,0.3,0.2,0.1,0.3,0c0.4-0.9,1.1-4.9,1.1-4.9L221.3,429.7"/>
			<path class="st0" d="M282.9,415.9c0.4,0.2,1.4,3.8,1.3,4.3c-0.1,0.5-3.9,0.9-4.3,0.5c-0.3-0.5,0.1-4.3,0.5-4.5
				C280.8,416,282.1,415.8,282.9,415.9 M285.7,413.3c-3.9,0.5-5.2,0.7-9.3,1.2c-0.4,0.3,0.3,0.6,0.4,0.7c0.3,0.3,0.7,0.7,0.7,1.3
				c0,0.6-0.2,6.4-0.6,9c-0.1,0.6-0.5,1.4-1,1.6c-1.4,0.7-2.8-1.2-3.3-1.8c-0.2-0.2-1.1-1.3-1.1-1.4c-0.1-0.5,1-1.6,1.3-2
				c1.5-2.5,0.4-5.1-1.6-6.3c-1.2-0.7-3.2-1-5-0.6c-0.8,0.2-1.5,0.6-2.3,0.8c-0.2-0.4-0.4-0.9-0.5-1.4c0-0.1-0.2-0.1-0.2-0.1
				c-1.1,1.6-1.8,2.5-2.9,3.3c0,0-0.2,0.3-0.2,0.3l0.1,0.2c0.2,0.2,0.5,0.3,0.7,0.4c0.2,0.1,0.5,0.4,0.6,0.7c0.2,0.8,1.4,6.7,1.6,9
				c-0.8,1.3-1.5,1.6-2.6,1.5c-1.6-0.3-4.3-4.1-3.9-3.1c0.5-0.6,1.1-1.4,1.4-2.1c0.9-2.2,0.1-4.4-1.4-5.5c-1.6-1.2-4.3-1.2-6.3-0.4
				c-0.3,0.1-1.3,0.9-1.6,0.8c-0.4-0.1-0.4-0.9-0.6-1.2c-0.1-0.2-0.4-0.2-0.4,0c-0.6,0.5-1,2.1-2.7,3.6c0,0,0,0.1,0,0.2
				c0.5,0.2,1.2,0.4,1.4,0.9c0.4,0.6,2.3,7.4,2.4,8.7c0.1,0.6-0.6,1.3-0.9,1.6c-0.1,0.1-0.4,0.3-0.7,0.3c-0.3-0.1-0.6-0.4-0.9-0.5
				c-0.6-0.3-1.2-0.6-1.8-1c-0.4-0.2-0.8-0.5-1.2-0.7c-0.9-0.4-0.2,1.2-0.7,1.6c-0.3,0.2-4.6,1.8-5,1.7c-0.1,0-0.3-0.2-0.3-0.3
				c-0.4-0.9-1-2.3-0.4-2.7c0.3-0.2,0.7-0.2,1.1-0.3c0.5-0.2,1.1-0.5,1.8-0.4c0.6,0.1,1.4,0.9,1.6,0.5c-0.5-2-0.9-3.1-1.4-4.4
				c-0.1-0.3,0-0.2-0.3-0.3c-0.5,1-0.4,1.4-1.7,2.1c-0.2,0.1-1.8,0.6-2,0.6c-0.3-0.1-0.9-1.8-1-2.2c-0.1-0.7,0.3-0.7,0.7-0.9
				c1-0.4,2.1-0.8,3.4-1.1c0.2-0.1,0.6-0.2,0.9-0.1c0.3,0.1,0.7,0.8,1.1,0.9c0.4-0.7,0.9-1.4,1.2-2.2c0.3-0.7,0.6-1.3,0.7-2.1
				c-0.1,0-0.2-0.2-0.3-0.2c-0.5,0.1-1,0.3-1.3,0.4c-2.1,0.6-4,1.3-6,2c-1.8,0.6-3.6,1.1-5.3,1.8c0.1,0.1,0,0.2,0.1,0.3
				c0.1,0.1,0.4,0.1,0.5,0.1c0.5,0.2,1,0.4,1.4,1c0.4,0.6,2.9,8,3.2,9.3c-0.3,1.5-1.1,1.3-1,2c0.2,0.4,4.4-1.6,15.3-4.9
				c1.1-0.3,2.1-0.6,3.2-0.9c0.5-0.1,0.9-0.2,1.3-0.4c-0.1-0.1,0-0.1-0.2-0.2c-1.6-0.8-2-1-2.5-2.9c-0.1-0.2-0.1-0.8,0.1-0.9
				c0.1,0,2.6-0.3,2.8-0.2c-0.1,0,3.6,3.6,5.4,6c0.3,0.3,0.7,0.4,0.7-0.4c0-0.8,0.8-3,1.2-3.3c0.4-0.3,3.6-0.6,6.6-1.2
				c0-0.1,0-0.2,0-0.2c0-0.1-0.9-0.4-1-0.5c-0.6-0.3-1-0.9-1.2-1.6c-0.1-0.4-0.4-1.6-0.1-1.9c0,0,0.1-0.1,0.1-0.1
				c0.1,0,2.2,0.1,2.8,0c2.9,3.1,4.5,6,5,6.4c0.4,0.3,0.5-0.1,0.5-0.1c0.4-0.9,1-2.8,1.5-3.1c1-0.2,4.7-0.5,5.3-0.7
				c0.2-0.3,0.1-0.2-0.4-0.5c-0.5-0.3-0.8-1.6-0.7-1.7c0-0.3,0.1-1.2,0.4-1.4c0.3-0.2,4-0.7,4.9-0.5c0.3,0.2,0.9,1.6,0.7,2.2
				c-0.2,0.7-0.9,1.2-0.4,1.3c0.7,0.1,3.1-0.4,4.3-0.4c0.4,0,0.1-0.2-0.5-1.1c-1.3-1.8-3.1-8.2-3.1-10.1c0-0.4,0.5-0.7,0.6-1.1
				C286.6,413.3,286.2,413.2,285.7,413.3 M252.7,420.5c1.6-0.1,2.6,0.5,2.8,1.8c0,0.4,0,0.8-0.1,1.1c-0.4,0.9-1.7,1.7-2.9,1.8
				c-0.7,0.1-1.3-0.1-1.7-0.4c-1.4-0.7-1.4-2.5-0.3-3.5C251,421,251.9,420.6,252.7,420.5 M267.8,417.2c1.8-0.1,3.4,1.4,2.4,3.3
				c-0.7,1.3-3.6,2.1-5,0.9c-1-0.9-0.6-2.5,0.3-3.2C266,417.7,266.9,417.3,267.8,417.2"/>
			<path class="st0" d="M340.8,419.2c-0.2,0-0.2,0.2-0.2,0.2s0.8,1.1,0.6,1.8c-0.2,0.7-4,8-4.4,8.3c-0.3,0.4-1.3,1.1-1.8,1.2
				c-0.2,0.1-0.3,0.2-0.1,0.3c0.8,0.3,3.7,1.2,4.7,1.5c0.3,0.1,0.2-0.2,0.2-0.2s-0.3-0.7-0.4-1.1c-0.1-0.4,0.6-2.2,1.4-2.3
				c0.5,0.1,4.4,1.2,4.6,1.6c0.2,0.3,0.2,1.3-0.2,2.3c-0.1,0.2-0.7,0.5-1,0.6c-0.2,0.1-0.2,0.3-0.2,0.3l4.4,1.3c0,0,0.3,0.1,0.2-0.2
				c-0.2-0.5-0.3-1.2-0.5-1.7c-0.4-1,0.7-8,1.1-9.2c0.3-0.8,0.9-1.2,1.4-1.4c0.2-0.1,0.1-0.3,0-0.3
				C349.6,421.7,340.9,419.2,340.8,419.2 M346.5,423.3c0.1,0.5-0.4,4-0.8,4.3c-0.3,0.3-4-0.7-4.1-1.2c-0.2-0.4,1.6-3.4,2-4
				C344.4,422.2,346.1,422.8,346.5,423.3"/>
			<path class="st0" d="M357.5,422.8c-1.8,0.9-3.1,1.3-4.2,1.5c-0.3,0.3,0.7,0.9,0.5,1.6c0,0.8-2.2,7-2.7,7.8
				c-0.2,0.3-1.2,1.4-1.8,1.5c-0.3,0.2,0.2,0.5,0.3,0.5c2.5,0.9,6.8,2.7,8.6,2.5c3.7-0.1,5.5-4.2,5.7-4.8c0.3-0.9,1.2-3.9-0.4-6.1
				c-1.1-1.4-2.6-3-5.6-2.7C356.9,424.6,358.2,422.9,357.5,422.8 M356.1,428.3c1-1.6,3-1.7,4.6-0.2c0.6,0.6,1.1,2.2,0.9,3.2
				c-0.5,1.9-1.6,3.9-3.2,4.2c-1.5,0.3-3.5-0.3-4.4-1.1C353.9,433.9,355.5,429.8,356.1,428.3"/>
			<path class="st0" d="M368.5,428.4c0,0.1-0.2,0.1-0.1,0.3c0.2,0.7,0.4,1,0.2,1.6c-0.2,0.6-4.9,7.5-5.6,7.9
				c-0.4,0.4-1.4,0.8-1.7,0.8c-0.2,0.1-0.2,0.2-0.2,0.3c1.7,0.7,4,1.7,4.4,1.8c0.2,0.1,0.3-0.2,0.1-0.5c-0.6-1.2,0.8-2.5,1.2-2.7
				c0.7,0,4,1.2,4.7,2.2c0,0.5-0.2,2.2-1.3,2.5c-0.5,0.1-0.6,0.3-0.3,0.4c0.2,0.1,3,1.3,4.1,1.7c0,0,0.3,0,0.1-0.3
				c-0.2-0.4-0.2-1.1-0.3-1.8c-0.1-0.8,1.7-8,2.4-9c0.4-0.7,1-0.9,1.4-1c0.2-0.1,0.1-0.2,0.1-0.3
				C377.6,432.2,369.3,428.6,368.5,428.4 M371.3,431.8c0.7,0.1,1.8,0.5,2.4,1.1c0.3,0.4-0.9,4.1-1.2,4.5c-0.8,0-3.6-1.5-3.8-1.7
				C368.7,434.9,370.8,431.8,371.3,431.8"/>
			<path class="st0" d="M378.6,437.1c1,0.7,2.5,0.4,3-0.6c0.5-0.9,0.2-2.4-0.8-2.8c-1.2-0.6-2.3-0.2-2.9,0.7
				C377.4,435.2,377.8,436.6,378.6,437.1 M379.4,433.7c2.7-0.5,2.9,3.2,0.9,3.5C377.5,437.6,377.3,434.1,379.4,433.7"/>
			<path class="st0" d="M379.6,434c-0.3,0.7-0.8,1.4-1.1,2.1c0.1,0.1,0.3,0.2,0.4,0.2c0.1-0.2,0.3-0.7,0.5-0.8
				c0.2-0.1,0.5,0.3,0.6,0.3c0.1,0.8-0.3,1,0.3,1.2c0.1-0.2,0.2-0.2,0.2-0.4c0-0.1,0-0.5,0-0.7c0.1-0.3,1-0.4,0.6-1.2
				C380.8,434.3,380.1,434.2,379.6,434 M379.9,434.6c0.1,0.1,0.6,0.2,0.7,0.3c0.1,0.1,0,0.3,0,0.3c0,0-0.1,0.2-0.1,0.2
				c-0.3,0.1-0.7-0.2-0.8-0.3C379.6,434.9,379.8,434.8,379.9,434.6"/>
		</g>
	</g>
	<path class="st1" d="M146.4,215.1"/>
	<path class="st2" d="M170.6,309.2"/>
	<path class="st2" d="M229.2,294.3"/>
	<g>
		<polygon class="st0" points="313.4,38.3 345.9,54.7 331.8,42.3 		"/>
		<polygon class="st0" points="376.8,100.2 378.1,113.5 357.3,85.1 		"/>
		<polygon class="st0" points="350.1,95.8 334.3,67.6 317,59.8 		"/>
		<polygon class="st0" points="314.3,59.8 340.8,101.7 321.9,85.1 343.1,113.5 343.1,140.1 317,116.7 352.4,162.4 351.2,146.8 
			371,162.4 371,151.5 350.1,120.3 368.9,136.3 362.5,111.1 384,154.4 398.8,174.1 398.8,198.9 309.4,154 305.2,129.3 		"/>
		<polygon class="st0" points="287.7,12.3 273.5,30.7 269.9,54.7 251.1,72 314.6,58.7 295.1,36.9 		"/>
	</g>
	<polygon class="st0" points="287.7,12.3 314.6,26 351.3,56.9 381.1,95.1 389.5,163.3 380.3,158.8 379,95.9 347.7,57 310.4,26.3 	
		"/>
	<polygon class="st0" points="251.1,72 237.1,145.5 227.2,150.4 	"/>
	<path class="st0" d="M190,152.1"/>
	<polygon class="st0" points="398.5,148.5 405.3,133.4 408.8,136.2 414.7,122.8 418.9,122.8 428.6,134.4 434.1,131.1 439.8,136.6 
		441.4,166.4 468.3,200.3 436,168.3 436,140.7 433.4,137.9 428.1,140.2 418.1,127.9 431.1,202.4 405.3,196.5 405.3,170.3 
		395.3,161.6 	"/>
	<g>
		<path class="st0" d="M309.7,191.5l4.9-6.2l-56.3,7.1l47.1-62l9.2-71.6l-87.4,91.8l-31.8,47.2C213.3,195.8,269.3,190.6,309.7,191.5
			z"/>
	</g>
	<path class="st0" d="M244.3,144.5"/>
	<g>
		<path class="st0" d="M171.8,237.3c-2.4,0.6-11.3,5.5-11.3,5.5l3.1,9.4c0,0,6.4-2.3,9.2-4s6.6-4.3,5.4-7.9
			C177.1,236.6,174.2,236.6,171.8,237.3z M167.9,248.9l-2.9,1.3l-2.2-6.5l9.9-5.1l-6.3,5.9L167.9,248.9z"/>
		<path class="st0" d="M425.3,274.5c1.8-0.5,11.1-14.8,11.3-16.9c0.1-2.1-1.9-6.3-5.4-10.3c-3.5-4-9.5-8.3-9.5-8.3l-10.9,34.6
			C410.8,273.6,423.4,275,425.3,274.5z M423.4,243.6l2.4,2.3l-11.8,25.4L423.4,243.6z"/>
		<path class="st0" d="M494.4,223.7c-1.4-0.4-2.8-0.8-4.3-1.2c-0.3,0-0.4-0.1-0.4-0.1c0.1,0,0.2,0,0.2,0
			c-46.1-12.8-93.2-21-140.6-24.6c-4.7,1.4-5.5,5.2-5.5,5.2l-2.8-3.8c-2.7-0.9-4.1,2.1-4.1,2.1c-0.5-1.9-3.3-4.2-3.3-4.2l-0.4-0.3
			c-49-2.6-98.3-0.2-146.9,7.2c-2.9,1.6-5.5,5.1-5.5,5.1c-0.5-2.8-4-3.2-5.9-3.3c-25.9,4.3-51.7,10.1-77.1,17.3l5.8-1.2
			c0,0-2.3,3.8-2.3,6.1l27.6-7.2l-23.3,11.8l20.3-3.9l-20.3,12.1l30.2-6.2l-29.2,16.7h16.7l-12.1,4.9l29.5-3.6l-28.4,11.3l16.9-1.5
			l-25.6,9.8l37.1-5.6l-33.9,12.8l26.7-4.6l-16.2,9.2l28.4-3.6L114,291.5l29.5-5.2L110.4,299h34L113,309.2l10.6-0.7
			c9.6-2.2,24.2-4.8,42.5-6.2l-17,4.6l0.6,0L110.4,319c0,0-5.7,2.3-6.7-2c-0.9-4.2-13-82.3-13-82.3s-0.4-4,3.3-4.9l4.9-1.3
			c0.7-2.4,1-5.3-2.1-5.2c-3.2,0.9-6.3,1.8-9.5,2.7c-1.9,0.6-3.2,2.3-2.9,3.9c4.5,29.9,9.5,59.7,15.1,89.3c1.4,1.7,5.1,4.7,13.7,3.8
			c1.4-0.2,2.4-0.2,3-0.2c25.2-7.5,50.8-13.4,76.6-17.7c1.7-1.6,5.6-5.6,6.2-7.6c-0.1-0.3,0.1-0.5,0.1-0.5c0,0.1,0,0.3-0.1,0.5
			c0.5,1.1,5.9,3.4,45.4,1.3c6.8-0.6,13.6-1,20.4-1.3c2-0.1,4.1-0.3,6.2-0.5l-2.5,0.3c25.7-1.1,51.4-0.6,77,1.5
			c4.5-0.7,10-2,11.8-4.4c0,0,1.1,2.7,8.1,2.7c7-0.1,15.6-3.9,20.5,0.3c3.3,2.8,10.2,6.3,14.4,8.3c27,4.6,53.8,11,80.1,19.1
			c3.4,0,7.6-0.5,9.8-2.9c5.5-29,10.4-58.1,14.9-87.4C503.1,228.2,498.2,225.1,494.4,223.7z M92.7,263l5,25.2
			C97.7,288.2,93.4,276.6,92.7,263z M284.9,222.7l6.1-6v17.9c0,0-15.1-7.8-16.4-7.9c-1.3-0.1-13.4,18.4-12.8,20.5
			c0.6,2.2,8.3,15,9.5,15.5c1.2,0.5,11.6-2.9,11.6-2.9v-11.6l-4.1-4.3h14.3c0,0-0.6,3.6-0.6,5.2c0,1.6,0.1,11.6,0.1,11.6
			s-3.5,5.2-7.6,7.2c-4.1,2-14.4,5-20.9,0c-6.5-5-10.9-14.2-11.2-18.2c-0.2-4.1,2-16.2,4.2-19.7c2.2-3.5,12.3-10.6,15.8-11
			c3.5-0.5,8.2,1.2,9.5,2C283.8,221.7,284.9,222.7,284.9,222.7z M272,261c0,0-7.8-13.2-7.8-14.1c0-0.9,1.8-3.9,3.4-6.9
			c1.7-2.9,7.2-10.9,7.2-10.9s-7.2,16.3-7.2,17.3C267.7,247.3,272,261,272,261z M275.5,201.4l-81.1,7.6
			C194.4,209,230,201,275.5,201.4z M228.3,262.7c0,0-0.2,0-1.2-0.5c-1-0.5-5-3.4-5.1-4.1c-0.1-0.7-7.2-37.1-7.2-37.1L228.3,262.7z
			 M178.2,212.8l-28.5,4C149.7,216.8,168,210.8,178.2,212.8z M171.5,259.2l-4.9,1.8l5.3,15.9l8,3l-21.7,7.2l4.4-7.2l-10.1-30.4
			l-7.3,2.4l11.4-21.1l1.4,4.3c0,0,7.2-6.2,12.1-7.1c4.8-0.9,12.5,2.1,15.5,6.2c2.6,3.5,2.4,8.5,1.5,11.3c-1,2.8-6.3,8.3-6.3,8.3
			l21.9,16.9l4.1-3.6l-2.8,16.7L171.5,259.2z M173.3,274.9l-4.4-12.8l2.2-0.9L173.3,274.9z M219.1,293.6l-11.1,1.8
			c0,0-1.7,0.1-1.2-2.4c0,0,9.7-3.1,17.6-2l-12.5,2.6H219.1z M209.1,262.4c-0.6-3-4.5-23.5-4.5-23.5l-5.8,1.1l13.7-18.5
			c0,0,6.6,34.8,7,37c0.4,2.1,6.2,5.4,9,7.1c0,0,7.6-5.5,7.7-6.6c0.2-1.1-7.3-38.6-7.3-38.6l11.9,7.6c0,0,6.7,30.3,5.6,31.5
			c-1,1.3-13.8,13.1-18.6,14C223.1,274.4,209.7,265.4,209.1,262.4z M231.4,293c41.9-9.1,98.3,0,98.3,0
			C287,288.2,231.4,293,231.4,293z M342.4,261.2c0,0-3.5,5.2-7.6,7.2c-4.1,2-14.4,5-20.9,0c-6.5-5-10.9-14.2-11.2-18.2
			c-0.2-4.1,2-16.2,4.2-19.7c2.2-3.5,12.3-10.6,15.8-11c3.5-0.5,8.2,1.2,9.5,2s2.4,1.8,2.4,1.8l6.1-6v17.9c0,0-15.1-7.8-16.4-7.9
			c-1.3-0.1-13.4,18.4-12.8,20.5c0.6,2.2,8.3,15,9.5,15.5c1.2,0.5,11.6-2.9,11.6-2.9v-11.6l-4.1-4.3h14.3c0,0-0.6,3.6-0.6,5.2
			C342.2,251.1,342.4,261.2,342.4,261.2z M321.7,261.7c0,0-7.8-13.2-7.8-14.1c0-0.9,1.8-3.9,3.4-6.9c1.7-2.9,7.2-10.9,7.2-10.9
			s-7.2,16.3-7.2,17.3C317.4,248.1,321.7,261.7,321.7,261.7z M437,214.7c6.4,3.1-18.9-3.9-18.9-3.9S430.6,211.6,437,214.7z
			 M415.5,210.8l-45.3-5.8C370.2,205,398.6,205.4,415.5,210.8z M393.1,235.4c0,0-5-4.8-5.5-5.3c-0.5-0.6-17.8-2.7-17.8-2.7
			l-2.1,13.7c0,0,5.5,0.8,6.8,1c1.3,0.2,5.9-3.9,5.9-3.9l-1.8,10.8l-11.9-1.8l-2.6,17.3c0,0,19.7,3.7,20.5,3.1
			c0.8-0.6,4.1-4.1,4.1-4.1l-1.7,11.3l-38.7-5.9l5.7-5l6.1-40.1l-4.2-5.2l38.7,5.9L393.1,235.4z M384.9,231.1l-11.4,0.5l-1.6,8.5
			l-2.2-0.2l1.9-10.6L384.9,231.1z M370.4,249.4l-4.3,13.2l2.2-13.7L370.4,249.4z M394.8,276.1l7.5-4.7l12.2-38.9l-4.1-6.2
			c0,0,11.8,3.7,14.5,4.5c2.7,0.8,6.8,4.4,11.6,10.7c4.8,6.3,8.3,14.7,8.3,17.2c0,2.5-1,5.1-5.2,11.5c-4.2,6.3-8.7,11.1-11.4,12.5
			c-2.7,1.3-11.2,0.4-14.6-0.7C406.7,279.8,394.8,276.1,394.8,276.1z M499.8,233.6c0,0-14.7,76.1-15.1,80.6s-5.1,3.3-5.1,3.3
			l-21.1-4.9l-57.2-12.4c20.6,1.6,36.8,4.4,48.8,7.1h27.9l-32.7-11l34.3,3.3l-34.3-14l36,5.9l-15.4-5.9h17.9l-28.2-6.6l30.7-2
			l-35.8-9.8h35.8l-16.7-6.6h16.7l-28.5-9.1h21.8l-17-6h22.4l-32-9h33.2l-19.6-7.5l18.8,2.9l-22.7-10.4c7.4,0,34.9,8.6,34.9,8.6
			C501,231,499.8,233.6,499.8,233.6z"/>
	</g>
	<path class="st0" d="M590.3,319.4c0,0-25.4-28.5-63.9-43.8l-23.2,68.7c0,0-6.2,7.6-13.1,5.9c-7-1.7-16.8-5.9-16.8-5.9l-8.2,10.4
		l48.1,25l8.4-1v7.2l2.7,1.6l2.3-2.4v4.8l11.9,6.3c0,0-2.7-48.6-7.1-59.9C531.4,336.4,562.5,326.2,590.3,319.4z M529.8,283.1
		c0,0,30.4,13.8,43.9,27.1c0,0-28.3-16.6-30.7-16.6c-2.4,0,18.7,16.6,18.7,16.6s-28-18.9-37.9-8.1
		C523.8,302,523.5,283.4,529.8,283.1z M500,362.5l12.2,12.2l-40.9-21.2l3.8-3.3l11.1,1.9C497,359,505,347,505,347l18.8,10.1
		l-18.8-3.6l24.2,22L500,362.5z M527.7,335.7c-0.1-1.4,8.4-6.2,23.3-8c0,0-18.4,4.2-22.3,8.3l2.3,7.7
		C531,343.6,527.8,337,527.7,335.7z"/>
	<path class="st0" d="M521.7,252.1l-14.2-5c0,0-10.6,66.8-13.9,75.5s-13.5,6.7-13.5,6.7l-2.9,10.4l11.6,4c3,2.3,9.3-1.7,9.3-1.7
		s26.4-72.4,28-80c0-0.1,0-0.2,0.1-0.3C524.9,257.7,523.2,254.5,521.7,252.1z M485.7,339c0,0,7.5,5.2,11.5-2.2
		C497.1,336.8,496.7,348.1,485.7,339z M501.6,318c4.2-13.2,14.1-37.2,14.1-37.2C507.5,308.9,501.6,318,501.6,318z M518.4,265.6
		c0,0-8.8-3.7-11.3,5.1c0,0,1-16.1,3.4-17.8c0,0,8.8,3.3,11.3,7.4c0,0-5-1.8-7.2-1.1C512.3,259.9,518.4,265.6,518.4,265.6z"/>
	<path class="st0" d="M106.7,325.3c0,0-7.6,3.1-11.1-5.9l-13.3-74.6L65,254.2c0,0-2.1-0.4,0,8.1c2.1,8.6,29.2,78.3,29.2,78.3
		s3.3,3.6,6,3.3c2.7-0.3,11.7-3.5,11.7-3.5L106.7,325.3z M80.9,249.6c0,0,4.8,23.4,2.5,14.2c-2.3-9.3-9.8-3.5-9.8-3.5l4.2-4.3
		c-3.1-0.3-10.1,1-10.1,1C68.9,253.8,80.9,249.6,80.9,249.6z M73.5,274.3c0,0,7.2,13.4,10.8,29C84.3,303.3,74.6,282.1,73.5,274.3z
		 M95.3,333.7c0,0,4.5,6.3,12.5,4.9C107.9,338.6,96.8,344.9,95.3,333.7z"/>
	<polygon class="st0" points="211.4,181 213.4,182.8 213.5,179.7 	"/>
	<polyline class="st0" points="224,40.2 245,86.2 243.4,91.7 222.3,40.9 	"/>
	<polygon class="st0" points="227.2,76.1 240.2,100.3 239.1,104 	"/>
	<polygon class="st0" points="222.3,74.6 235.5,116.3 232.1,126.1 	"/>
	<g>
		<path class="st0" d="M173.8,383.7c-5.7,0-10.4,4.6-10.4,10.4c0,5.7,4.6,10.4,10.4,10.4c5.7,0,10.4-4.6,10.4-10.4
			C184.2,388.3,179.5,383.7,173.8,383.7z M173.8,402.7c-4.8,0-8.7-3.9-8.7-8.7c0-4.8,3.9-8.7,8.7-8.7c4.8,0,8.7,3.9,8.7,8.7
			C182.5,398.8,178.6,402.7,173.8,402.7z"/>
		<path class="st0" d="M173.8,387.1c-3.8,0-6.9,3.1-6.9,6.9c0,3.8,3.1,6.9,6.9,6.9c3.8,0,6.9-3.1,6.9-6.9
			C180.7,390.2,177.6,387.1,173.8,387.1z M173,398.4c-2.3,0-4.1-1.9-4.1-4.1c0-1.2,0.5-2.3,1.3-3c-0.2,0.5-0.3,0.9-0.3,1.5
			c0,2.6,2.1,4.7,4.7,4.7c0.5,0,0.9-0.1,1.4-0.2C175.2,397.9,174.1,398.4,173,398.4z"/>
	</g>
	<g>
		<path class="st0" d="M402.7,393.7c0,5.7,4.6,10.4,10.4,10.4c5.7,0,10.4-4.6,10.4-10.4c0-5.7-4.6-10.4-10.4-10.4
			C407.3,383.4,402.7,388,402.7,393.7z M421.7,393.7c0,4.8-3.9,8.7-8.7,8.7c-4.8,0-8.7-3.9-8.7-8.7c0-4.8,3.9-8.7,8.7-8.7
			C417.9,385.1,421.7,389,421.7,393.7z"/>
		<path class="st0" d="M406.2,393.7c0,3.8,3.1,6.9,6.9,6.9c3.8,0,6.9-3.1,6.9-6.9s-3.1-6.9-6.9-6.9
			C409.3,386.8,406.2,389.9,406.2,393.7z M417.4,394.6c0,2.3-1.9,4.1-4.1,4.1c-1.2,0-2.3-0.5-3-1.3c0.5,0.2,0.9,0.3,1.5,0.3
			c2.6,0,4.7-2.1,4.7-4.7c0-0.5-0.1-0.9-0.2-1.4C416.9,392.4,417.4,393.4,417.4,394.6z"/>
	</g>
	<g>
		<path class="st0" d="M184.9,79.6c0-5.7-4.6-10.4-10.4-10.4c-5.7,0-10.4,4.6-10.4,10.4c0,5.7,4.6,10.4,10.4,10.4
			C180.3,90,184.9,85.3,184.9,79.6z M165.9,79.6c0-4.8,3.9-8.7,8.7-8.7c4.8,0,8.7,3.9,8.7,8.7c0,4.8-3.9,8.7-8.7,8.7
			C169.7,88.3,165.9,84.4,165.9,79.6z"/>
		<path class="st0" d="M181.4,79.6c0-3.8-3.1-6.9-6.9-6.9c-3.8,0-6.9,3.1-6.9,6.9c0,3.8,3.1,6.9,6.9,6.9
			C178.4,86.5,181.4,83.4,181.4,79.6z M170.2,78.8c0-2.3,1.9-4.1,4.1-4.1c1.2,0,2.3,0.5,3,1.3c-0.5-0.2-0.9-0.3-1.5-0.3
			c-2.6,0-4.7,2.1-4.7,4.7c0,0.5,0.1,0.9,0.2,1.4C170.7,81,170.2,79.9,170.2,78.8z"/>
	</g>
	<g>
		<path class="st0" d="M413.7,90.1c5.7,0,10.4-4.6,10.4-10.4c0-5.7-4.6-10.4-10.4-10.4c-5.7,0-10.4,4.6-10.4,10.4
			C403.3,85.4,408,90.1,413.7,90.1z M413.7,71c4.8,0,8.7,3.9,8.7,8.7c0,4.8-3.9,8.7-8.7,8.7c-4.8,0-8.7-3.9-8.7-8.7
			C405,74.9,408.9,71,413.7,71z"/>
		<path class="st0" d="M413.7,86.6c3.8,0,6.9-3.1,6.9-6.9c0-3.8-3.1-6.9-6.9-6.9s-6.9,3.1-6.9,6.9C406.8,83.5,409.9,86.6,413.7,86.6
			z M414.5,75.4c2.3,0,4.1,1.9,4.1,4.1c0,1.2-0.5,2.3-1.3,3c0.2-0.5,0.3-0.9,0.3-1.5c0-2.6-2.1-4.7-4.7-4.7c-0.5,0-0.9,0.1-1.4,0.2
			C412.3,75.8,413.4,75.4,414.5,75.4z"/>
	</g>
	<g>
		<path class="st0" d="M210,407c-7.7-3.8-15.1-8.2-22.1-13c0,1.7-0.4,3.4-1,4.9c0,0,0,0,0,0l1.9-2.8c0.8,0.5,1.5,1,2.3,1.5L187,404
			c-0.8-0.5-1.5-1-2.3-1.5c-0.4,0.5-0.8,0.9-1.3,1.3c-0.1,0.1-0.1,0.1-0.2,0.2c-0.5,0.4-0.9,0.8-1.5,1.1c7.2,4.9,14.7,9.2,22.4,13.1
			C205.5,414.6,208.4,409.7,210,407z M208.7,407.8l-3.4,6.8c-0.9-0.4-1.7-0.9-2.6-1.3l3.5-6.7C207.1,407,207.9,407.4,208.7,407.8z
			 M188.1,404.7l4.1-6.4c0.8,0.5,1.6,1,2.4,1.5l-4,6.5C189.7,405.8,188.9,405.3,188.1,404.7z M191.7,407l4-6.5
			c0.8,0.5,1.6,0.9,2.4,1.4l-3.8,6.6C193.4,408,192.5,407.5,191.7,407z M195.3,409.1l3.8-6.6c0.8,0.5,1.6,0.9,2.4,1.4l-3.7,6.6
			C197,410.1,196.2,409.6,195.3,409.1z M199,411.2l3.7-6.6c0.8,0.4,1.6,0.9,2.5,1.3l-3.5,6.7C200.7,412.2,199.9,411.7,199,411.2z"/>
		<path class="st0" d="M380.8,408c0.3-0.1,0.5-0.3,0.8-0.4l3.4,6.7c-0.2,0.1-0.3,0.2-0.5,0.2c0.5,1.4,0.8,2.8,1,3.8
			c7.4-3.7,14.6-7.8,21.5-12.4c-1.7-0.9-3.2-2-4.4-3.5l0.9,1.3c-0.8,0.5-1.6,1.1-2.5,1.6l-4-6.4c0.8-0.5,1.6-1,2.3-1.5l1.6,2.5
			c-0.7-1.3-1.1-2.7-1.3-4.2c-6.4,4.2-13,8-19.9,11.4C380.1,407.4,380.5,407.7,380.8,408z M395.8,399.7l4,6.4
			c-0.8,0.5-1.6,1-2.5,1.5l-3.9-6.5C394.2,400.6,395,400.1,395.8,399.7z M392.3,401.8l3.9,6.5c-0.8,0.5-1.7,1-2.5,1.5l-3.7-6.6
			C390.7,402.7,391.5,402.2,392.3,401.8z M388.8,403.8l3.7,6.6c-0.9,0.5-1.7,1-2.6,1.4l-3.6-6.7C387.2,404.7,388,404.2,388.8,403.8z
			 M385.2,405.8l3.6,6.7c-0.9,0.5-1.7,0.9-2.6,1.4l-3.4-6.7C383.6,406.6,384.4,406.2,385.2,405.8z"/>
	</g>
	<path class="st0" d="M182.8,169.1l-4.5,3.8l-5.1-11.3l-6.2,4.8l-8.8-17.2l-3.7,11.3l-2.9-2.7l-5.1,15.1l-3.1-2l-6.5,21.2l-5-4.2
		l-12.5,24.4l56.6-11.9l6.8,1.9l6.8-4.2l7.2-11.7L182.8,169.1z M157.2,174.3l-3.8-2.6l-2.4,14.5l-4.6-2.3l-7.5,19.6l6.2-26.5
		l4.5,3.7l2.4-15.4l3.2,2.4l2.8-9L157.2,174.3z"/>
	<g>
		<polygon class="st0" points="218.9,359.3 220.5,356.2 220.5,349.8 212.4,346.3 205.3,349.1 216.3,355 		"/>
		<polygon class="st0" points="229.4,359.9 225.3,356.7 223.6,356.7 220.9,359.9 229.4,361.5 		"/>
		<polygon class="st0" points="274.4,363.1 282.2,360.6 279.1,358.7 271,359.4 264.5,360.6 266.5,362.2 		"/>
		<polygon class="st0" points="362.1,363.3 361.6,362.2 358.8,360.5 357.9,361.4 357.9,359.4 355.3,358.3 349.2,357.1 355.6,364.8 
					"/>
		<polygon class="st0" points="416.5,359.3 416.5,355.9 414.4,354.7 412.1,354.7 410.2,358 408.1,359.9 407.3,361 407.3,359.5 
			408.7,358.4 407.3,357.4 405.2,357.4 401.8,359.5 406.3,363.6 		"/>
	</g>
	<path class="st0" d="M353.8,366.9l-3.2-4l-3.2-4l-2.4-1.8l-2.4-1.8l-3.9-0.6l-3.9-0.6l1.1,2.4l1.1,2.4l-2.7-2.7l-2.7-2.7l-5.5,1
		l-5.5,1l-2.9,4.9l-2.9,4.9l2.2,0.5l2.2,0.5l4.2-1.9l4.2-1.9l2.6,2.6l2.6,2.6l-2.6-1.2l-2.6-1.2l-5,2.7l-5,2.7l-2.2-1.5l-2.2-1.5
		l-1.8-0.7l-1.8-0.7l-3.4,1.8l-3.4,1.8l-0.8-3.7l-0.8-3.7l-6.6-1.1l-6.6-1.1l-5.3,1.8l-5.3,1.8l2.2,1.5l2.2,1.5v3.3v3.3h-3h-3
		l-5.8,2.3l-5.8,2.3l5.4-3.3l5.4-3.3h2.3h2.3l0.1-2.2l0.1-2.2l-7.2-1.5l-7.2-1.5l-4.2-3.2l-4.2-3.2l-4.9,1.4l-4.9,1.4l2,3l2,3
		l-3.3-2.3l-3.3-2.3l-3.4,3l-3.4,3l1.8,1.1l1.8,1.1l1,4.1l1,4.1l-2-3l-2-3l-2.2-1.6l-2.2-1.6l-1-2.1l-1-2.1l-5.4,0.3l-5.4,0.3l3.7-1
		l3.7-1l-5.2-1l-5.2-1l-6.9,3.8l-6.9,3.8l-2.1,3.7l-0.7,1.2l-1.4,2.4l0.6-2l-0.6,0.3h-4.8l-3,2.9l0.8,11.8l-2.8-10.8l3.2-5.5
		l7.4,0.7l0.5-1.8l1.3-4.3l5.7-3l5.7-3l-0.6-2.3l-0.6-2.3l-2.1-1.5l-2.1-1.5l-8.3,2.4l-8.3,2.4l6.6-3.6l6.6-3.6l-5-2.7l-5-2.7
		l-8,2.3l-8,2.3l-4.2-0.1l-4.2-0.1l-6.5,3.2l-6.5,3.2l-1.4,2.5l-1.4,2.5l16.8,17.2c0.1,0,0.2,0,0.3,0c6.4,0,11.7,4.4,13.1,10.4
		l20.5,12.3l1.3-1.4l1.3-1.4c0,0,1.6,0.9,4.2,1.6l1.6-6.8h4.7l3.6-5.8l8.3,1l3.6-4l4.9,2.7l-3.6-1l-3.8,3.2l-7.5,0.8l-5.1,5.7h-3.6
		l-1.1,4.4c3.5,0.6,8.3,0.6,13.8-1.6c5.6-2.3,8.9-5.2,11.5-7.9c2.6-2.7,4.4-5.3,7.1-7c2.7-1.6,4.3-3.8,8.2-5.1
		c4-1.3,10.4-1.7,23,0.3c12.5,2,19.5,1.9,24.9,1.3c5.4-0.7,9.3-2,15.7-2.5c6.4-0.5,11.6,0.7,15.1,2.1c3.6,1.4,5.5,2.9,5.5,2.9
		s1.2,1.1,3,2.8l1.8-9.5l4.8-5.2l-0.1,0.1l1.6-2.5L353.8,366.9z M179.1,359.8h-8.5l-7.1,2.3l7-5.5h6.9l10.6-3.4L179.1,359.8z
		 M208.7,374.7v5.7l-3.6,0.8l-0.6,5.6l-0.9-5.7l3.3-1.6l0.7-6.4l4.5-1.5L208.7,374.7z"/>
	<path class="st0" d="M422.8,370.9l-2.9,1.1l1.5-2.5l1.5-2.5l-2.1-2.6l-2.1-2.6l-5.9,2l-5.9,2l-4.1-2.7l-4.1-2.7h-5h-5l-4,4.8
		l-4,4.8l1,4.1l1,4.1l-0.5,2.9l-0.5,2.9l-0.5-3.8l-0.5-3.8l-2-2.1l-2-2.1l-2.6-1.1l-2.6-1.1v1.8v1.8l-0.9-2.2l-0.9-2.2l-2.1-2.1
		l-2.1-2.1l-4.1,1.1l-4.1,1.1l-0.9,0.7l-8.7,9.8l-2.4,10.2c1.1,0.9,2.3,2,3.7,3.1c3,2.4,6.5,5.1,10,7.1l5.5-4.9v-4.2l-2.3-2.5
		l0.7-5.1l0.6,4.9l2.2,2.5v5.2l-4.2,5.4c1,0.5,1.9,1,2.9,1.3c5.1,2,9.2,1.7,12.1,1c2.9-0.8,4.5-2.1,4.5-2.1l0.9,0.9l0.9,0.9l7.8-4.3
		l7.8-4.3l1.3-0.9c0.1-1.8,0.6-3.6,1.4-5.1l-7.6-1.4v-7.5l1.7,5.9l7.5,0.6c2.5-3.1,6.2-5,10.5-5c1.1,0,2.1,0.1,3.1,0.4l0.2-0.2
		l4.6-4.7l4.6-4.7L422.8,370.9z M395.8,364.8h-4.2l-5.3,1.2l4.9-3h5.4l9.5,6L395.8,364.8z"/>
	<path class="st0" d="M210.3,32.8l-12.5,9.7l-21.6,104.1l-1.9,9.2l3.4-1.7l2.2,5.4l3.8-6.1l4.6-20.5l14.8,18.8l-6.8,15.4l9.7,8.8
		l8.1-10.9l3.2-110.7l6.8-14.2L210.3,32.8z M197.3,111.5l2.6-56.8l7.8-10.3L197.3,111.5z"/>
	<path class="st0" d="M125.8,358.9l-9.9-15l-18.2,4.7c0,0-6.9,0-7.3-3.2c-0.3-3.2-26.3-69.8-26.3-69.8l-34.9,19.8l-1.7,5.8l-4.2-2.1
		L9.7,313.8c0,0,39.6,1.7,52.9,13c0,0-15.6,36.3-17.4,61L125.8,358.9z M75.9,355.5l13.7-3.5c7.7,4.9,24.2-4.4,24.2-4.4
		s3.2,4.7,4,7.9c0.8,3.3-1.9,2.9-1.9,2.9l-50.5,16.2c8.1-5.6,32.3-13.1,32.3-13.1l-31.1,0.7c4.2-2.7,28.6-5,28.6-5L75.9,355.5z
		 M57.6,282.7l-6,4.1c0,0,9-1.6,13.2-1.7c4.2-0.1-20.9,5.4-29.8,10.4C35,295.4,51.8,283.7,57.6,282.7z M51.9,316
		c-1.6-0.4-27.4-5.9-30.9-6.7c-0.6-0.1-1.1-0.1-1.6-0.1c0,0,0.5,0,1.2,0c0,0-0.1,0-0.1,0l21.3-8.7l-9.9,7.6l13.5-3.3l-5,3.1
		l15.9-4.8l-12.9,7.2l15.5,1.2C58.9,311.7,53.6,316.4,51.9,316z M64.7,325.9c-0.6-1-4.3-3.8-4.3-3.8l5.8,3.3
		c-1.6,1.6-7.3,16.1-7.3,16.1C59.8,337.3,64.7,325.9,64.7,325.9z M54.5,354.7c0.6-5,3.6-11.3,3.6-11.3C58,346,54.5,354.7,54.5,354.7
		z"/>
	<polygon class="st0" points="172.7,314 165.3,331.7 166.9,348.7 171.7,347 179.1,347.6 195.9,342.5 205.1,345.4 212.1,343.6 
		222.9,303.3 201.5,303.3 195.9,309.2 173.8,311.9 	"/>
	<polygon class="st0" points="329.7,303.3 346.5,325.5 349.2,337.9 367.3,352.1 352.1,334.2 349.6,322.5 	"/>
	<polygon class="st0" points="327.6,315.2 346.5,344.4 341.6,344.4 	"/>
	<polygon class="st0" points="404.4,308.6 419.8,328.5 422.9,360.9 419.8,359.1 417.4,329.2 	"/>
	<path class="st0" d="M413.6,312.3l12.1,16.2l0.8,36.2l11.8-11.3l-1-28l5.3,22.9c0,0,12.2-13.2,16.5-25.9L413.6,312.3z"/>
	<path class="st0" d="M401.8,318.9"/>
	<path class="st0" d="M129.8,322.8c0,0,7.7,18,24.3,35.9l2.5-4l6.8-4l-1.7-18l8.7-20.4C170.4,312.3,141.5,317,129.8,322.8z"/>
	<polygon class="st0" points="231.3,306 263.5,306 226.4,337.6 	"/>
	<polygon class="st0" points="364.4,301.6 379.6,300.5 395.1,328.1 	"/>
	<path class="st0" d="M168.3,92.4c-0.1,0.1-0.3,0.2-0.4,0.3l-0.9-1.1c-2.9-1.8-5-4.6-6-8c-3.3,2.9-6.5,5.9-9.7,9
		c-34.1,34.1-54.5,78.1-58.7,125.6l3.8-0.9c0-0.1,0-0.2,0-0.3l0.8,0.1l4.1-0.9l-4.7-0.5c0.1-1,0.2-1.9,0.3-2.9l7.5,0.9
		c-0.1,0.6-0.1,1.2-0.2,1.8l1.3-0.3c5.4-48.7,29.1-91.9,64.1-122.5C169.1,92.8,168.7,92.6,168.3,92.4z M104.6,212.6l-7.5-0.9
		c0.1-1,0.3-1.9,0.4-2.9l7.4,1.1C104.8,210.7,104.7,211.7,104.6,212.6z M105.1,208.5l-7.4-1.1c0.1-1,0.3-1.9,0.4-2.9l7.4,1.2
		C105.4,206.7,105.3,207.6,105.1,208.5z M105.8,204.5l-7.4-1.2c0.2-1,0.3-1.9,0.5-2.9l7.4,1.4C106.1,202.7,105.9,203.6,105.8,204.5z
		 M106.5,200.5l-7.4-1.4c0.2-1,0.4-1.9,0.6-2.9l7.4,1.5C106.8,198.7,106.7,199.6,106.5,200.5z M107.3,196.5l-7.4-1.5
		c0.2-1,0.4-1.9,0.6-2.9l7.3,1.7C107.7,194.7,107.5,195.6,107.3,196.5z M108.2,192.5l-7.3-1.7c0.2-0.9,0.5-1.9,0.7-2.8l7.3,1.8
		C108.6,190.7,108.4,191.6,108.2,192.5z M109.1,188.6l-7.3-1.8c0.2-0.9,0.5-1.9,0.8-2.8l7.3,2C109.6,186.8,109.4,187.7,109.1,188.6z
		 M110.2,184.6l-7.3-2c0.3-0.9,0.5-1.9,0.8-2.8l7.2,2.2C110.7,182.9,110.4,183.7,110.2,184.6z M111.3,180.7l-7.2-2.2
		c0.3-0.9,0.6-1.9,0.9-2.8l7.2,2.3C111.9,178.9,111.6,179.8,111.3,180.7z M112.6,176.8l-7.2-2.3c0.3-0.9,0.6-1.9,0.9-2.8l7.1,2.5
		C113.2,175.1,112.9,175.9,112.6,176.8z M113.9,172.9l-7.1-2.5c0.3-0.9,0.6-1.8,1-2.8l7.1,2.6C114.5,171.2,114.2,172.1,113.9,172.9z
		 M115.3,169.1l-7.1-2.6c0.3-0.9,0.7-1.8,1-2.7l7,2.8C115.9,167.4,115.6,168.3,115.3,169.1z M116.7,165.3l-7-2.8
		c0.4-0.9,0.7-1.8,1.1-2.7l7,2.9C117.4,163.6,117.1,164.5,116.7,165.3z M118.3,161.6l-7-2.9c0.4-0.9,0.8-1.8,1.2-2.7l6.9,3.1
		C119,159.9,118.6,160.7,118.3,161.6z M119.9,157.8l-6.9-3.1c0.4-0.9,0.8-1.8,1.2-2.7l6.8,3.2C120.7,156.2,120.3,157,119.9,157.8z
		 M121.6,154.1l-6.8-3.2c0.4-0.9,0.8-1.8,1.3-2.6l6.8,3.4C122.4,152.5,122,153.3,121.6,154.1z M123.4,150.5l-6.8-3.4
		c0.4-0.9,0.9-1.7,1.3-2.6l6.7,3.5C124.3,148.8,123.9,149.7,123.4,150.5z M125.3,146.9l-6.7-3.5c0.5-0.9,0.9-1.7,1.4-2.6l6.6,3.7
		C126.2,145.2,125.7,146,125.3,146.9z M127.3,143.3l-6.6-3.7c0.5-0.8,0.9-1.7,1.4-2.5l6.6,3.8C128.1,141.7,127.7,142.5,127.3,143.3z
		 M129.3,139.7l-6.6-3.8c0.5-0.8,1-1.7,1.5-2.5l6.5,3.9C130.2,138.1,129.7,138.9,129.3,139.7z M131.4,136.2l-6.5-3.9
		c0.5-0.8,1-1.6,1.5-2.5l6.4,4.1C132.3,134.7,131.8,135.5,131.4,136.2z M133.5,132.8l-6.4-4.1c0.5-0.8,1.1-1.6,1.6-2.5l6.3,4.2
		C134.5,131.3,134,132,133.5,132.8z M135.8,129.4l-6.3-4.2c0.5-0.8,1.1-1.6,1.7-2.4l6.2,4.4C136.8,127.9,136.3,128.6,135.8,129.4z
		 M138.1,126l-6.2-4.4c0.6-0.8,1.1-1.6,1.7-2.4l6.1,4.5C139.2,124.5,138.6,125.3,138.1,126z M140.5,122.7l-6.1-4.5
		c0.6-0.8,1.2-1.6,1.8-2.3l6,4.6C141.6,121.3,141,122,140.5,122.7z M142.9,119.5l-6-4.6c0.6-0.8,1.2-1.6,1.8-2.3l5.9,4.7
		C144.1,118,143.5,118.8,142.9,119.5z M145.5,116.3l-5.9-4.7c0.6-0.8,1.2-1.5,1.8-2.3l5.8,4.9C146.6,114.8,146,115.5,145.5,116.3z
		 M148,113.1l-5.8-4.9c0.6-0.7,1.2-1.5,1.9-2.2l5.7,5C149.2,111.7,148.6,112.4,148,113.1z M150.7,110l-5.7-5
		c0.6-0.7,1.3-1.5,1.9-2.2l5.6,5.1C151.9,108.7,151.3,109.3,150.7,110z M153.4,107l-5.6-5.1c0.7-0.7,1.3-1.4,2-2.2l5.5,5.2
		C154.7,105.6,154,106.3,153.4,107z M156.2,104l-5.5-5.2c0.7-0.7,1.4-1.4,2-2.1l5.4,5.3C157.5,102.7,156.8,103.3,156.2,104z
		 M159,101.1l-5.4-5.3c0.7-0.7,1.4-1.4,2.1-2l5.3,5.5C160.3,99.8,159.7,100.5,159,101.1z M161.9,98.3l-5.3-5.5
		c0.7-0.7,1.4-1.4,2.1-2l5.2,5.6C163.3,97,162.6,97.6,161.9,98.3z M164.9,95.4l-5.2-5.6c0.7-0.7,1.4-1.3,2.2-2l5.1,5.7
		C166.3,94.2,165.6,94.8,164.9,95.4z"/>
	<path class="st0" d="M486,217.8c-0.1-0.7-0.1-1.4-0.2-2l7.5-0.8c0.1,1,0.2,1.9,0.3,2.9l-5.7,0.5l3.3,1l2.5-0.2c0,0.3,0.1,0.7,0.1,1
		l3.9,1.2c-3.5-48.6-24.1-93.8-58.9-128.6c-3.9-3.9-7.9-7.6-12-11.1c-0.5,4.6-3.3,8.4-7.2,10.5c36,31.1,60.2,75.4,65.2,125.3
		L486,217.8z M493.1,213.6l-7.5,0.8c-0.1-0.9-0.2-1.8-0.3-2.8l7.5-1C492.9,211.7,493,212.7,493.1,213.6z M492.6,209.4l-7.5,1
		c-0.1-0.9-0.2-1.8-0.4-2.7l7.4-1.1C492.4,207.5,492.5,208.5,492.6,209.4z M421.5,92.2l5-5.7c0.7,0.6,1.5,1.3,2.2,1.9l-5.1,5.6
		C422.9,93.4,422.2,92.8,421.5,92.2z M424.5,94.9l5.1-5.6c0.7,0.7,1.4,1.3,2.1,2l-5.2,5.5C425.9,96.1,425.2,95.5,424.5,94.9z
		 M429.5,99.6c-0.7-0.7-1.3-1.3-2-2l5.2-5.5c0.7,0.7,1.4,1.4,2.1,2.1L429.5,99.6z M430.4,100.5l5.3-5.4c0.7,0.7,1.4,1.4,2,2.1
		l-5.5,5.3C431.7,101.8,431.1,101.1,430.4,100.5z M433.3,103.4l5.5-5.3c0.7,0.7,1.3,1.4,2,2.1l-5.6,5.2
		C434.5,104.7,433.9,104.1,433.3,103.4z M436,106.4l5.6-5.2c0.7,0.7,1.3,1.4,2,2.2l-5.7,5.1C437.3,107.7,436.7,107,436,106.4z
		 M438.8,109.4l5.7-5.1c0.6,0.7,1.3,1.5,1.9,2.2l-5.8,4.9C440,110.8,439.4,110.1,438.8,109.4z M441.4,112.5l5.8-4.9
		c0.6,0.7,1.3,1.5,1.9,2.2l-5.9,4.8C442.6,113.9,442,113.2,441.4,112.5z M444,115.6l5.9-4.8c0.6,0.8,1.2,1.5,1.8,2.3l-6,4.7
		C445.2,117,444.6,116.3,444,115.6z M446.6,118.8l6-4.7c0.6,0.8,1.2,1.5,1.8,2.3l-6.1,4.6C447.7,120.2,447.1,119.5,446.6,118.8z
		 M449,122l6.1-4.6c0.6,0.8,1.2,1.6,1.7,2.4l-6.2,4.4C450.1,123.5,449.6,122.8,449,122z M451.5,125.3l6.2-4.4
		c0.6,0.8,1.1,1.6,1.7,2.4l-6.3,4.3C452.5,126.8,452,126.1,451.5,125.3z M453.8,128.7l6.3-4.3c0.5,0.8,1.1,1.6,1.6,2.4l-6.3,4.2
		C454.8,130.2,454.3,129.4,453.8,128.7z M456,132.1l6.3-4.2c0.5,0.8,1.1,1.6,1.6,2.5l-6.4,4C457,133.6,456.5,132.8,456,132.1z
		 M458.2,135.5l6.4-4c0.5,0.8,1,1.7,1.5,2.5l-6.5,3.9C459.2,137.1,458.7,136.3,458.2,135.5z M460.3,139l6.5-3.9
		c0.5,0.8,1,1.7,1.5,2.5l-6.6,3.7C461.3,140.6,460.8,139.8,460.3,139z M462.4,142.5l6.6-3.7c0.5,0.9,1,1.7,1.4,2.6l-6.7,3.6
		C463.3,144.1,462.8,143.3,462.4,142.5z M464.3,146.1l6.7-3.6c0.5,0.9,0.9,1.7,1.4,2.6l-6.7,3.4
		C465.2,147.7,464.8,146.9,464.3,146.1z M466.2,149.7l6.7-3.4c0.4,0.9,0.9,1.7,1.3,2.6l-6.8,3.3C467,151.3,466.6,150.5,466.2,149.7z
		 M468,153.3l6.8-3.3c0.4,0.9,0.8,1.8,1.2,2.7l-6.9,3.2C468.8,155,468.4,154.2,468,153.3z M469.7,157l6.9-3.2
		c0.4,0.9,0.8,1.8,1.2,2.7l-6.9,3C470.5,158.7,470.1,157.9,469.7,157z M471.4,160.8l6.9-3c0.4,0.9,0.8,1.8,1.1,2.7l-7,2.9
		C472.1,162.5,471.8,161.6,471.4,160.8z M473,164.5l7-2.9c0.4,0.9,0.7,1.8,1.1,2.7l-7.1,2.7C473.7,166.2,473.3,165.4,473,164.5z
		 M474.5,168.3l7.1-2.7c0.3,0.9,0.7,1.8,1,2.7l-7.1,2.6C475.1,170,474.8,169.2,474.5,168.3z M475.9,172.1l7.1-2.6
		c0.3,0.9,0.7,1.8,1,2.8l-7.2,2.4C476.5,173.9,476.2,173,475.9,172.1z M477.2,176l7.2-2.4c0.3,0.9,0.6,1.9,0.9,2.8l-7.2,2.2
		C477.8,177.8,477.5,176.9,477.2,176z M478.4,179.9l7.2-2.2c0.3,0.9,0.6,1.9,0.8,2.8l-7.2,2.1C479,181.6,478.7,180.8,478.4,179.9z
		 M479.6,183.8l7.2-2.1c0.3,0.9,0.5,1.9,0.8,2.8l-7.3,1.9C480.1,185.6,479.9,184.7,479.6,183.8z M480.7,187.7l7.3-1.9
		c0.2,0.9,0.5,1.9,0.7,2.9l-7.3,1.8C481.1,189.5,480.9,188.6,480.7,187.7z M481.7,191.7l7.3-1.8c0.2,1,0.4,1.9,0.7,2.9l-7.4,1.6
		C482.1,193.5,481.9,192.6,481.7,191.7z M482.6,195.7l7.4-1.6c0.2,1,0.4,1.9,0.6,2.9l-7.4,1.5C483,197.5,482.8,196.6,482.6,195.7z
		 M483.4,199.6l7.4-1.5c0.2,1,0.4,1.9,0.6,2.9l-7.4,1.3C483.8,201.5,483.6,200.6,483.4,199.6z M491.5,202.4c0.2,1,0.3,1.9,0.5,2.9
		l-7.4,1.1c-0.1-0.9-0.3-1.8-0.5-2.7L491.5,202.4z"/>
	<g>
		<path class="st0" d="M479.4,321.9c0.2-0.4,0.4-0.8,0.6-1.3l-1.4,0.3l-2.6-0.6c0,0.1-0.1,0.2-0.1,0.3L479.4,321.9z"/>
		<path class="st0" d="M472.9,326.7c-0.3,0.6-0.6,1.3-1,1.9l-6.7-3.5c0.2-0.3,0.3-0.6,0.5-0.9l-1.2-0.4
			c-11.4,22.1-27,41.6-45.7,57.6c0.4,0.2,0.8,0.4,1.2,0.6c0.6-0.6,1.3-1.1,1.9-1.7l5,5.7c-0.6,0.5-1.2,1-1.7,1.5
			c0.6,1.2,1.1,2.5,1.3,3.8c4.2-3.6,8.2-7.3,12.1-11.2c15.5-15.5,28.2-33.1,37.8-52.1L472.9,326.7z M428,385l-5.1-5.7
			c0.7-0.6,1.4-1.2,2-1.9l5.2,5.6C429.4,383.7,428.7,384.4,428,385z M431.1,382.2l-5.2-5.6c0.7-0.6,1.3-1.3,2-1.9l5.3,5.5
			C432.5,380.9,431.8,381.5,431.1,382.2z M434.1,379.3l-5.3-5.5c0.7-0.6,1.3-1.3,2-2l5.4,5.3C435.5,377.9,434.8,378.6,434.1,379.3z
			 M437.1,376.3l-5.4-5.3c0.6-0.7,1.3-1.3,1.9-2l5.5,5.2C438.5,374.9,437.8,375.6,437.1,376.3z M440.1,373.2l-5.5-5.2
			c0.6-0.7,1.3-1.3,1.9-2l5.6,5.1C441.4,371.8,440.7,372.5,440.1,373.2z M442.9,370.1l-5.6-5.1c0.6-0.7,1.2-1.4,1.9-2.1l5.7,5
			C444.3,368.7,443.6,369.4,442.9,370.1z M445.8,366.9l-5.7-5c0.6-0.7,1.2-1.4,1.8-2.1l5.8,4.9C447,365.5,446.4,366.2,445.8,366.9z
			 M448.5,363.7l-5.8-4.9c0.6-0.7,1.2-1.4,1.7-2.1l5.9,4.7C449.7,362.2,449.1,363,448.5,363.7z M451.2,360.4l-5.9-4.8
			c0.6-0.7,1.1-1.4,1.7-2.2l6,4.6C452.4,358.9,451.8,359.7,451.2,360.4z M453.8,357.1l-6-4.6c0.6-0.7,1.1-1.5,1.7-2.2l6.1,4.5
			C454.9,355.5,454.4,356.3,453.8,357.1z M456.3,353.7l-6.1-4.5c0.5-0.7,1.1-1.5,1.6-2.2l6.2,4.4
			C457.4,352.1,456.9,352.9,456.3,353.7z M458.7,350.3l-6.2-4.4c0.5-0.8,1.1-1.5,1.6-2.3l6.3,4.2
			C459.9,348.7,459.3,349.5,458.7,350.3z M461.1,346.8l-6.3-4.2c0.5-0.8,1-1.5,1.5-2.3l6.4,4.1C462.2,345.1,461.7,345.9,461.1,346.8
			z M463.4,343.2l-6.4-4.1c0.5-0.8,1-1.6,1.5-2.4l6.5,4C464.5,341.5,464,342.4,463.4,343.2z M465.7,339.6l-6.5-4
			c0.5-0.8,0.9-1.6,1.4-2.4l6.6,3.8C466.7,337.9,466.2,338.8,465.7,339.6z M467.9,335.9l-6.6-3.8c0.5-0.8,0.9-1.6,1.3-2.4l6.6,3.7
			C468.8,334.3,468.3,335.1,467.9,335.9z M469.9,332.3l-6.6-3.7c0.4-0.8,0.9-1.6,1.3-2.4l6.7,3.5
			C470.8,330.6,470.4,331.4,469.9,332.3z"/>
	</g>
	<g>
		<path class="st0" d="M123.3,319.2c-0.2-0.4-0.4-0.8-0.6-1.2l-1.2,0.3c0.2,0.4,0.4,0.8,0.5,1.2L123.3,319.2z"/>
		<path class="st0" d="M170.4,380.6c-18.4-16-33.8-35.4-45.1-57.3l-2.6,0.6l-5.6,2.9c-0.2-0.5-0.5-1-0.7-1.4l-3.8,0.9
			c9.7,19.7,22.7,37.9,38.7,53.9c3.2,3.2,6.5,6.3,9.9,9.3c0.4-1.2,1-2.4,1.8-3.5c-0.6-0.5-1.2-1.1-1.8-1.6l5.1-5.6
			c0.7,0.6,1.4,1.2,2.1,1.8l-1.5,1.7C168,381.5,169.1,380.9,170.4,380.6z M117.8,327.9l6.7-3.5c0.4,0.8,0.9,1.6,1.3,2.5l-6.7,3.6
			C118.7,329.7,118.3,328.8,117.8,327.9z M119.8,331.7l6.7-3.6c0.4,0.8,0.9,1.6,1.3,2.4l-6.6,3.7
			C120.7,333.4,120.3,332.5,119.8,331.7z M121.9,335.4l6.6-3.7c0.5,0.8,0.9,1.6,1.4,2.4l-6.5,3.9
			C122.8,337.1,122.3,336.2,121.9,335.4z M124,339l6.5-3.9c0.5,0.8,1,1.6,1.5,2.4l-6.4,4C125,340.7,124.5,339.8,124,339z
			 M126.2,342.6l6.4-4c0.5,0.8,1,1.6,1.5,2.3l-6.3,4.2C127.3,344.3,126.7,343.4,126.2,342.6z M128.5,346.2l6.3-4.2
			c0.5,0.8,1,1.5,1.5,2.3l-6.3,4.3C129.6,347.8,129.1,347,128.5,346.2z M130.9,349.7l6.3-4.3c0.5,0.8,1,1.5,1.6,2.3l-6.2,4.4
			C132,351.3,131.5,350.5,130.9,349.7z M133.3,353.2l6.2-4.4c0.5,0.7,1.1,1.5,1.6,2.2l-6.1,4.6C134.5,354.7,133.9,353.9,133.3,353.2
			z M135.9,356.6l6.1-4.6c0.6,0.7,1.1,1.5,1.7,2.2l-6,4.7C137,358.1,136.4,357.3,135.9,356.6z M138.4,359.9l6-4.7
			c0.6,0.7,1.2,1.4,1.7,2.2l-5.9,4.8C139.7,361.4,139,360.7,138.4,359.9z M141.1,363.2l5.9-4.8c0.6,0.7,1.2,1.4,1.8,2.1l-5.8,4.9
			C142.4,364.7,141.7,364,141.1,363.2z M143.8,366.5l5.8-4.9c0.6,0.7,1.2,1.4,1.8,2.1l-5.7,5.1C145.1,367.9,144.5,367.2,143.8,366.5
			z M146.6,369.6l5.7-5.1c0.6,0.7,1.2,1.4,1.9,2l-5.6,5.2C147.9,371.1,147.3,370.3,146.6,369.6z M151.3,374.6
			c-0.6-0.6-1.2-1.2-1.8-1.9l5.6-5.2c0.5,0.6,1.1,1.1,1.6,1.7L151.3,374.6z M152.2,375.5l5.4-5.4c0.6,0.7,1.3,1.3,1.9,2l-5.4,5.4
			C153.4,376.8,152.8,376.2,152.2,375.5z M155,378.4l5.4-5.4c0.7,0.6,1.3,1.3,2,1.9l-5.2,5.5C156.4,379.8,155.7,379.1,155,378.4z
			 M160.2,383.4c-0.7-0.7-1.4-1.3-2.2-2l5.2-5.5c0.7,0.6,1.4,1.3,2,1.9L160.2,383.4z"/>
		<path class="st0" d="M114.3,320.8c-0.1-0.2-0.2-0.3-0.2-0.5l1.5-0.7l-5.4,1.3c0.1,0.2,0.2,0.4,0.3,0.7L114.3,320.8z"/>
	</g>
	<g>
		<polygon class="st0" points="195.8,68.3 194.8,66.6 194.4,68.5 195.9,71 		"/>
		<path class="st0" d="M195.6,63.5l0-1.2l-0.3,1.4C195.4,63.6,195.5,63.5,195.6,63.5z"/>
		<path class="st0" d="M187.7,77.4c0,0.1,0,0.1,0,0.2L187.7,77.4C187.7,77.4,187.7,77.4,187.7,77.4z"/>
		<path class="st0" d="M188.6,72.4l-2.2-3.3c0.8-0.5,1.6-1,2.4-1.6l0.4,0.7l1-6c-3.1,1.9-6.2,3.9-9.3,5.9c1.2,0.7,2.2,1.5,3.1,2.5
			c0.4-0.3,0.8-0.5,1.2-0.8l2.9,4.5L188.6,72.4z"/>
		<path class="st0" d="M194,73.3l-0.4-0.6l-0.5,2.7c1-0.6,1.9-1.2,2.9-1.8l0-1.4C195.3,72.5,194.6,72.9,194,73.3z"/>
	</g>
	<g>
		<path class="st0" d="M274.9,38c0.5,0,0.9-0.1,1.4-0.1l0.7,7.5c-0.8,0.1-1.6,0.2-2.4,0.2l-0.1,1.3c3.7-0.4,7.5-0.7,11.3-0.9
			l-0.9-1.2c-0.9,0-1.7,0.1-2.6,0.2l-0.3-4.1l-1.4-2L281,45c-0.9,0.1-1.8,0.1-2.8,0.2l-0.7-7.5c0.7-0.1,1.4-0.1,2.1-0.2l-2.6-3.6
			c-0.7,0.1-1.3,0.1-2,0.2L274.9,38z"/>
		<path class="st0" d="M268.4,46.3c-0.8,0.1-1.5,0.2-2.3,0.3l-1.1-7.4c1-0.1,2-0.3,2.9-0.4l0.8,5.9l0.8-4.2l-0.2-1.8
			c0.2,0,0.4,0,0.6-0.1l0.7-3.9c-14.2,1.7-28.2,4.9-41.5,9.5l1.6,3.4c0.1,0,0.2-0.1,0.3-0.1l0.9,2.7l2.5,5.4
			c10.9-3.7,22.3-6.4,33.9-8.1L268.4,46.3z M234.5,54.3l-2.4-7.2c0.9-0.3,1.9-0.6,2.8-0.9l2.2,7.2C236.2,53.7,235.4,54,234.5,54.3z
			 M238.4,53l-2.2-7.2c0.9-0.3,1.9-0.6,2.8-0.8l2.1,7.2C240.2,52.5,239.3,52.7,238.4,53z M242.3,51.8l-2.1-7.2
			c0.9-0.3,1.9-0.5,2.8-0.8l1.9,7.3C244.1,51.3,243.2,51.6,242.3,51.8z M246.2,50.8l-1.9-7.3c0.9-0.2,1.9-0.5,2.8-0.7l1.8,7.3
			C248,50.3,247.1,50.5,246.2,50.8z M250.1,49.8l-1.8-7.3c1-0.2,1.9-0.5,2.9-0.7l1.6,7.4C252,49.4,251.1,49.6,250.1,49.8z
			 M254.1,48.9l-1.6-7.4c0.9-0.2,1.9-0.4,2.9-0.6l1.5,7.4C255.9,48.5,255,48.7,254.1,48.9z M258.1,48l-1.5-7.4
			c1-0.2,1.9-0.4,2.9-0.6l1.3,7.4C259.9,47.7,259,47.9,258.1,48z M262.1,47.3l-1.3-7.4c1-0.2,1.9-0.3,2.9-0.5l1.1,7.4
			C263.9,47,263,47.1,262.1,47.3z"/>
	</g>
	<path class="st0" d="M330.7,36.3l5.9,5l0-0.1c1,0.2,1.9,0.4,2.8,0.6l-0.4,1.6l1.1,1l0.5-2.2c1,0.2,1.9,0.5,2.9,0.7l-0.9,3.6
		l1.1,0.9l1.1-4.2c1,0.2,1.9,0.5,2.8,0.8l-1.5,5.5l1.1,0.9l1.7-6.1c0.9,0.3,1.9,0.5,2.8,0.8l-2.2,7.2c0,0,0,0,0,0l2.4,2.1
		c17.1,5.4,33.1,13,47.7,22.7c0.1-0.4,0.2-0.9,0.3-1.3c-0.4-0.3-0.9-0.6-1.3-0.9l4.1-6.4c0.5,0.3,1,0.6,1.4,1
		c1.1-0.9,2.3-1.6,3.6-2.2C384.5,51.7,358.3,41.2,330.7,36.3z M350.8,52.8l2.2-7.2c0.9,0.3,1.9,0.6,2.8,0.9l-2.3,7.2
		C352.6,53.3,351.7,53,350.8,52.8z M354.7,54l2.3-7.2c0.9,0.3,1.8,0.6,2.7,0.9l-2.5,7.1C356.5,54.6,355.6,54.3,354.7,54z
		 M358.6,55.3l2.5-7.1c0.9,0.3,1.8,0.6,2.8,1l-2.6,7.1C360.3,55.9,359.4,55.6,358.6,55.3z M362.4,56.7l2.6-7.1
		c0.9,0.3,1.8,0.7,2.8,1l-2.8,7C364.1,57.3,363.3,57,362.4,56.7z M366.2,58.2l2.8-7c0.9,0.4,1.8,0.7,2.7,1.1l-2.9,7
		C367.9,58.9,367.1,58.5,366.2,58.2z M370,59.7l2.9-7c0.9,0.4,1.8,0.8,2.7,1.2l-3.1,6.9C371.7,60.5,370.8,60.1,370,59.7z
		 M373.7,61.4l3.1-6.9c0.9,0.4,1.8,0.8,2.7,1.2l-3.2,6.8C375.4,62.1,374.6,61.7,373.7,61.4z M377.4,63.1l3.2-6.8
		c0.9,0.4,1.8,0.8,2.6,1.3l-3.4,6.8C379.1,63.9,378.2,63.5,377.4,63.1z M381.1,64.9l3.4-6.8c0.9,0.4,1.7,0.9,2.6,1.3l-3.5,6.7
		C382.7,65.7,381.9,65.3,381.1,64.9z M384.7,66.7l3.5-6.7c0.9,0.5,1.7,0.9,2.6,1.4l-3.7,6.6C386.3,67.6,385.5,67.2,384.7,66.7z
		 M388.2,68.7l3.7-6.6c0.9,0.5,1.7,1,2.6,1.4l-3.8,6.6C389.9,69.6,389,69.1,388.2,68.7z M391.8,70.7l3.8-6.6c0.8,0.5,1.7,1,2.5,1.5
		l-3.9,6.5C393.4,71.6,392.6,71.2,391.8,70.7z M397.6,74.3c-0.8-0.5-1.6-1-2.4-1.5l3.9-6.5c0.8,0.5,1.7,1,2.5,1.6L397.6,74.3z"/>
</g>
</svg>
